%TF.GenerationSoftware,KiCad,Pcbnew,7.0.10*%
%TF.CreationDate,2024-01-30T14:45:37-06:00*%
%TF.ProjectId,logic_gates,6c6f6769-635f-4676-9174-65732e6b6963,rev?*%
%TF.SameCoordinates,Original*%
%TF.FileFunction,Copper,L1,Top*%
%TF.FilePolarity,Positive*%
%FSLAX46Y46*%
G04 Gerber Fmt 4.6, Leading zero omitted, Abs format (unit mm)*
G04 Created by KiCad (PCBNEW 7.0.10) date 2024-01-30 14:45:37*
%MOMM*%
%LPD*%
G01*
G04 APERTURE LIST*
%TA.AperFunction,ComponentPad*%
%ADD10C,1.600000*%
%TD*%
%TA.AperFunction,ComponentPad*%
%ADD11O,1.600000X1.600000*%
%TD*%
%TA.AperFunction,ComponentPad*%
%ADD12R,1.600000X1.600000*%
%TD*%
%TA.AperFunction,ComponentPad*%
%ADD13C,1.800000*%
%TD*%
%TA.AperFunction,ComponentPad*%
%ADD14R,1.800000X1.800000*%
%TD*%
%TA.AperFunction,ComponentPad*%
%ADD15C,1.308000*%
%TD*%
%TA.AperFunction,SMDPad,CuDef*%
%ADD16R,4.000000X4.000000*%
%TD*%
%TA.AperFunction,ViaPad*%
%ADD17C,0.800000*%
%TD*%
%TA.AperFunction,Conductor*%
%ADD18C,0.250000*%
%TD*%
G04 APERTURE END LIST*
D10*
%TO.P,R4,2*%
%TO.N,Net-(D4-A)*%
X151950000Y-82850000D03*
%TO.P,R4,1*%
%TO.N,Net-(R4-Pad1)*%
X148450000Y-82850000D03*
%TD*%
D11*
%TO.P,U3,14,VDD*%
%TO.N,+5V*%
X144120000Y-107375000D03*
%TO.P,U3,13*%
%TO.N,N/C*%
X144120000Y-109915000D03*
%TO.P,U3,12*%
X144120000Y-112455000D03*
%TO.P,U3,11*%
X144120000Y-114995000D03*
%TO.P,U3,10*%
X144120000Y-117535000D03*
%TO.P,U3,9*%
X144120000Y-120075000D03*
%TO.P,U3,8*%
X144120000Y-122615000D03*
%TO.P,U3,7,VSS*%
%TO.N,GND*%
X136500000Y-122615000D03*
%TO.P,U3,6*%
X136500000Y-120075000D03*
%TO.P,U3,5*%
%TO.N,Net-(U3-Pad3)*%
X136500000Y-117535000D03*
%TO.P,U3,4*%
%TO.N,Net-(R6-Pad1)*%
X136500000Y-114995000D03*
%TO.P,U3,3*%
%TO.N,Net-(U3-Pad3)*%
X136500000Y-112455000D03*
%TO.P,U3,2*%
%TO.N,Net-(R3-Pad1)*%
X136500000Y-109915000D03*
D12*
%TO.P,U3,1*%
%TO.N,Net-(R1-Pad1)*%
X136500000Y-107375000D03*
%TD*%
D13*
%TO.P,D3,2,A*%
%TO.N,Net-(D3-A)*%
X157110000Y-72025000D03*
D14*
%TO.P,D3,1,K*%
%TO.N,GND*%
X159650000Y-72025000D03*
%TD*%
D12*
%TO.P,U2,1*%
%TO.N,Net-(R1-Pad1)*%
X136500000Y-86875000D03*
D11*
%TO.P,U2,2*%
%TO.N,Net-(R3-Pad1)*%
X136500000Y-89415000D03*
%TO.P,U2,3*%
%TO.N,Net-(R4-Pad1)*%
X136500000Y-91955000D03*
%TO.P,U2,4*%
%TO.N,N/C*%
X136500000Y-94495000D03*
%TO.P,U2,5*%
X136500000Y-97035000D03*
%TO.P,U2,6*%
X136500000Y-99575000D03*
%TO.P,U2,7,VSS*%
%TO.N,GND*%
X136500000Y-102115000D03*
%TO.P,U2,8*%
%TO.N,N/C*%
X144120000Y-102115000D03*
%TO.P,U2,9*%
X144120000Y-99575000D03*
%TO.P,U2,10*%
X144120000Y-97035000D03*
%TO.P,U2,11*%
X144120000Y-94495000D03*
%TO.P,U2,12*%
X144120000Y-91955000D03*
%TO.P,U2,13*%
X144120000Y-89415000D03*
%TO.P,U2,14,VDD*%
%TO.N,+5V*%
X144120000Y-86875000D03*
%TD*%
D10*
%TO.P,R3,2*%
%TO.N,Net-(D2-A)*%
X128050000Y-91050000D03*
%TO.P,R3,1*%
%TO.N,Net-(R3-Pad1)*%
X128050000Y-87550000D03*
%TD*%
%TO.P,R1,2*%
%TO.N,Net-(D1-A)*%
X120150000Y-91450000D03*
%TO.P,R1,1*%
%TO.N,Net-(R1-Pad1)*%
X120150000Y-87950000D03*
%TD*%
%TO.P,R6,1*%
%TO.N,Net-(R6-Pad1)*%
X148650000Y-93450000D03*
%TO.P,R6,2*%
%TO.N,Net-(D6-A)*%
X152150000Y-93450000D03*
%TD*%
D14*
%TO.P,D6,1,K*%
%TO.N,GND*%
X159650000Y-93325000D03*
D13*
%TO.P,D6,2,A*%
%TO.N,Net-(D6-A)*%
X157110000Y-93325000D03*
%TD*%
D14*
%TO.P,D4,1,K*%
%TO.N,GND*%
X159750000Y-83025000D03*
D13*
%TO.P,D4,2,A*%
%TO.N,Net-(D4-A)*%
X157210000Y-83025000D03*
%TD*%
D11*
%TO.P,U1,14,VDD*%
%TO.N,+5V*%
X143820000Y-66875000D03*
%TO.P,U1,13*%
%TO.N,N/C*%
X143820000Y-69415000D03*
%TO.P,U1,12*%
X143820000Y-71955000D03*
%TO.P,U1,11*%
X143820000Y-74495000D03*
%TO.P,U1,10*%
X143820000Y-77035000D03*
%TO.P,U1,9*%
%TO.N,Net-(R2-Pad1)*%
X143820000Y-79575000D03*
%TO.P,U1,8*%
%TO.N,+5V*%
X143820000Y-82115000D03*
%TO.P,U1,7,VSS*%
%TO.N,GND*%
X136200000Y-82115000D03*
%TO.P,U1,6*%
%TO.N,N/C*%
X136200000Y-79575000D03*
%TO.P,U1,5*%
X136200000Y-77035000D03*
%TO.P,U1,4*%
X136200000Y-74495000D03*
%TO.P,U1,3*%
X136200000Y-71955000D03*
%TO.P,U1,2*%
%TO.N,Net-(R3-Pad1)*%
X136200000Y-69415000D03*
D12*
%TO.P,U1,1*%
%TO.N,Net-(R1-Pad1)*%
X136200000Y-66875000D03*
%TD*%
D15*
%TO.P,S1,A1*%
%TO.N,+5V*%
X120500000Y-74790000D03*
%TO.P,S1,1*%
%TO.N,Net-(R1-Pad1)*%
X120500000Y-82410000D03*
%TD*%
D13*
%TO.P,D2,2,A*%
%TO.N,Net-(D2-A)*%
X126010000Y-101725000D03*
D14*
%TO.P,D2,1,K*%
%TO.N,GND*%
X128550000Y-101725000D03*
%TD*%
D10*
%TO.P,R2,1*%
%TO.N,Net-(R2-Pad1)*%
X148850000Y-71650000D03*
%TO.P,R2,2*%
%TO.N,Net-(D3-A)*%
X152350000Y-71650000D03*
%TD*%
D13*
%TO.P,D1,2,A*%
%TO.N,Net-(D1-A)*%
X120210000Y-101725000D03*
D14*
%TO.P,D1,1,K*%
%TO.N,GND*%
X122750000Y-101725000D03*
%TD*%
D15*
%TO.P,S2,1*%
%TO.N,Net-(R3-Pad1)*%
X128100000Y-82410000D03*
%TO.P,S2,A1*%
%TO.N,+5V*%
X128100000Y-74790000D03*
%TD*%
D16*
%TO.P,BAT -,2*%
%TO.N,GND*%
X128500000Y-69800000D03*
%TD*%
%TO.P,BAT+,1*%
%TO.N,+5V*%
X120500000Y-69300000D03*
%TD*%
D17*
%TO.N,GND*%
X133000000Y-69800000D03*
%TD*%
D18*
%TO.N,Net-(R1-Pad1)*%
X136034009Y-90540000D02*
X137060000Y-90540000D01*
X135375000Y-89880991D02*
X136034009Y-90540000D01*
X137060000Y-90540000D02*
X138075000Y-89525000D01*
X138075000Y-89525000D02*
X138075000Y-68750000D01*
X138075000Y-68750000D02*
X136200000Y-66875000D01*
X136500000Y-86875000D02*
X135375000Y-88000000D01*
X135375000Y-88000000D02*
X135375000Y-89880991D01*
X122190000Y-82410000D02*
X120500000Y-82410000D01*
X129300000Y-75300000D02*
X122190000Y-82410000D01*
X129300000Y-74724009D02*
X129300000Y-75300000D01*
X136200000Y-67824009D02*
X129300000Y-74724009D01*
X136200000Y-66875000D02*
X136200000Y-67824009D01*
%TO.N,GND*%
X133000000Y-69800000D02*
X128500000Y-69800000D01*
%TO.N,Net-(R4-Pad1)*%
X148450000Y-85650000D02*
X146100000Y-88000000D01*
X148450000Y-82850000D02*
X148450000Y-85650000D01*
%TO.N,Net-(R2-Pad1)*%
X148850000Y-74545000D02*
X143820000Y-79575000D01*
X148850000Y-71650000D02*
X148850000Y-74545000D01*
%TO.N,Net-(D6-A)*%
X157110000Y-93325000D02*
X152275000Y-93325000D01*
X152275000Y-93325000D02*
X152150000Y-93450000D01*
%TO.N,Net-(R6-Pad1)*%
X148650000Y-93450000D02*
X148650000Y-101254009D01*
%TO.N,Net-(D3-A)*%
X156735000Y-71650000D02*
X157110000Y-72025000D01*
X152350000Y-71650000D02*
X156735000Y-71650000D01*
%TO.N,GND*%
X160585000Y-82950000D02*
X160610000Y-82925000D01*
%TO.N,+5V*%
X116200000Y-102700000D02*
X116200000Y-71700000D01*
X118900000Y-105400000D02*
X116200000Y-102700000D01*
X139100000Y-118700000D02*
X136074009Y-118700000D01*
%TO.N,GND*%
X160435000Y-93250000D02*
X160510000Y-93325000D01*
%TO.N,+5V*%
X144120000Y-107375000D02*
X144120000Y-108011396D01*
X139100000Y-113031396D02*
X139100000Y-118700000D01*
X136074009Y-118700000D02*
X122774009Y-105400000D01*
X144120000Y-108011396D02*
X139100000Y-113031396D01*
X122774009Y-105400000D02*
X118900000Y-105400000D01*
X116200000Y-71700000D02*
X118600000Y-69300000D01*
X118600000Y-69300000D02*
X120500000Y-69300000D01*
%TO.N,Net-(R6-Pad1)*%
X148650000Y-101254009D02*
X137625000Y-112279009D01*
X137625000Y-112279009D02*
X137625000Y-113870000D01*
X137625000Y-113870000D02*
X136500000Y-114995000D01*
%TO.N,Net-(D4-A)*%
X157275000Y-83025000D02*
X157400000Y-82900000D01*
X157350000Y-82850000D02*
X151950000Y-82850000D01*
X157210000Y-83025000D02*
X157275000Y-83025000D01*
X157400000Y-82900000D02*
X157350000Y-82850000D01*
%TO.N,Net-(R3-Pad1)*%
X136200000Y-69415000D02*
X128100000Y-77515000D01*
X128100000Y-77515000D02*
X128100000Y-82410000D01*
%TO.N,+5V*%
X143820000Y-66875000D02*
X142695000Y-68000000D01*
X142695000Y-68000000D02*
X142695000Y-80990000D01*
X142695000Y-80990000D02*
X143820000Y-82115000D01*
%TO.N,Net-(R1-Pad1)*%
X136500000Y-107375000D02*
X135375000Y-106250000D01*
X135375000Y-106250000D02*
X135375000Y-88000000D01*
%TO.N,+5V*%
X143820000Y-86575000D02*
X144120000Y-86875000D01*
X120500000Y-69300000D02*
X120500000Y-68300000D01*
%TO.N,Net-(R4-Pad1)*%
X140455000Y-88000000D02*
X136500000Y-91955000D01*
%TO.N,+5V*%
X120500000Y-68300000D02*
X124500000Y-64300000D01*
X143820000Y-82115000D02*
X143820000Y-86575000D01*
X124500000Y-64300000D02*
X141245000Y-64300000D01*
%TO.N,Net-(R4-Pad1)*%
X146100000Y-88000000D02*
X140455000Y-88000000D01*
%TO.N,+5V*%
X141245000Y-64300000D02*
X143820000Y-66875000D01*
%TO.N,Net-(R3-Pad1)*%
X134925000Y-108340000D02*
X134925000Y-94425000D01*
X134925000Y-94425000D02*
X128050000Y-87550000D01*
X136500000Y-89415000D02*
X137625000Y-88290000D01*
X137625000Y-85925000D02*
X137450000Y-85750000D01*
X137625000Y-88290000D02*
X137625000Y-85925000D01*
X137450000Y-85750000D02*
X129850000Y-85750000D01*
X129850000Y-85750000D02*
X128050000Y-87550000D01*
X136500000Y-109915000D02*
X134925000Y-108340000D01*
%TO.N,Net-(D1-A)*%
X120210000Y-91510000D02*
X120150000Y-91450000D01*
X120210000Y-101725000D02*
X120210000Y-91510000D01*
%TO.N,Net-(D2-A)*%
X126010000Y-101725000D02*
X128050000Y-99685000D01*
X128050000Y-99685000D02*
X128050000Y-91050000D01*
%TO.N,Net-(U3-Pad3)*%
X135375000Y-116410000D02*
X135375000Y-113580000D01*
X136500000Y-117535000D02*
X135375000Y-116410000D01*
X135375000Y-113580000D02*
X136500000Y-112455000D01*
%TO.N,Net-(R3-Pad1)*%
X128050000Y-82460000D02*
X128100000Y-82410000D01*
%TO.N,+5V*%
X120500000Y-69300000D02*
X120500000Y-74790000D01*
%TO.N,Net-(R3-Pad1)*%
X128050000Y-87550000D02*
X128050000Y-82460000D01*
%TO.N,+5V*%
X128100000Y-74790000D02*
X120500000Y-74790000D01*
%TO.N,Net-(R1-Pad1)*%
X120150000Y-87950000D02*
X120150000Y-82760000D01*
X120150000Y-82760000D02*
X120500000Y-82410000D01*
%TD*%
M02*
