%TF.GenerationSoftware,KiCad,Pcbnew,7.0.10*%
%TF.CreationDate,2024-01-30T14:45:37-06:00*%
%TF.ProjectId,logic_gates,6c6f6769-635f-4676-9174-65732e6b6963,rev?*%
%TF.SameCoordinates,Original*%
%TF.FileFunction,Copper,L2,Bot*%
%TF.FilePolarity,Positive*%
%FSLAX46Y46*%
G04 Gerber Fmt 4.6, Leading zero omitted, Abs format (unit mm)*
G04 Created by KiCad (PCBNEW 7.0.10) date 2024-01-30 14:45:37*
%MOMM*%
%LPD*%
G01*
G04 APERTURE LIST*
%TA.AperFunction,ComponentPad*%
%ADD10C,1.600000*%
%TD*%
%TA.AperFunction,ComponentPad*%
%ADD11O,1.600000X1.600000*%
%TD*%
%TA.AperFunction,ComponentPad*%
%ADD12R,1.600000X1.600000*%
%TD*%
%TA.AperFunction,ComponentPad*%
%ADD13C,1.800000*%
%TD*%
%TA.AperFunction,ComponentPad*%
%ADD14R,1.800000X1.800000*%
%TD*%
%TA.AperFunction,ComponentPad*%
%ADD15C,1.308000*%
%TD*%
%TA.AperFunction,ViaPad*%
%ADD16C,0.800000*%
%TD*%
%TA.AperFunction,Conductor*%
%ADD17C,0.250000*%
%TD*%
G04 APERTURE END LIST*
D10*
%TO.P,R4,2*%
%TO.N,Net-(D4-A)*%
X151950000Y-82850000D03*
%TO.P,R4,1*%
%TO.N,Net-(R4-Pad1)*%
X148450000Y-82850000D03*
%TD*%
D11*
%TO.P,U3,14,VDD*%
%TO.N,+5V*%
X144120000Y-107375000D03*
%TO.P,U3,13*%
%TO.N,N/C*%
X144120000Y-109915000D03*
%TO.P,U3,12*%
X144120000Y-112455000D03*
%TO.P,U3,11*%
X144120000Y-114995000D03*
%TO.P,U3,10*%
X144120000Y-117535000D03*
%TO.P,U3,9*%
X144120000Y-120075000D03*
%TO.P,U3,8*%
X144120000Y-122615000D03*
%TO.P,U3,7,VSS*%
%TO.N,GND*%
X136500000Y-122615000D03*
%TO.P,U3,6*%
X136500000Y-120075000D03*
%TO.P,U3,5*%
%TO.N,Net-(U3-Pad3)*%
X136500000Y-117535000D03*
%TO.P,U3,4*%
%TO.N,Net-(R6-Pad1)*%
X136500000Y-114995000D03*
%TO.P,U3,3*%
%TO.N,Net-(U3-Pad3)*%
X136500000Y-112455000D03*
%TO.P,U3,2*%
%TO.N,Net-(R3-Pad1)*%
X136500000Y-109915000D03*
D12*
%TO.P,U3,1*%
%TO.N,Net-(R1-Pad1)*%
X136500000Y-107375000D03*
%TD*%
D13*
%TO.P,D3,2,A*%
%TO.N,Net-(D3-A)*%
X157110000Y-72025000D03*
D14*
%TO.P,D3,1,K*%
%TO.N,GND*%
X159650000Y-72025000D03*
%TD*%
D12*
%TO.P,U2,1*%
%TO.N,Net-(R1-Pad1)*%
X136500000Y-86875000D03*
D11*
%TO.P,U2,2*%
%TO.N,Net-(R3-Pad1)*%
X136500000Y-89415000D03*
%TO.P,U2,3*%
%TO.N,Net-(R4-Pad1)*%
X136500000Y-91955000D03*
%TO.P,U2,4*%
%TO.N,N/C*%
X136500000Y-94495000D03*
%TO.P,U2,5*%
X136500000Y-97035000D03*
%TO.P,U2,6*%
X136500000Y-99575000D03*
%TO.P,U2,7,VSS*%
%TO.N,GND*%
X136500000Y-102115000D03*
%TO.P,U2,8*%
%TO.N,N/C*%
X144120000Y-102115000D03*
%TO.P,U2,9*%
X144120000Y-99575000D03*
%TO.P,U2,10*%
X144120000Y-97035000D03*
%TO.P,U2,11*%
X144120000Y-94495000D03*
%TO.P,U2,12*%
X144120000Y-91955000D03*
%TO.P,U2,13*%
X144120000Y-89415000D03*
%TO.P,U2,14,VDD*%
%TO.N,+5V*%
X144120000Y-86875000D03*
%TD*%
D10*
%TO.P,R3,2*%
%TO.N,Net-(D2-A)*%
X128050000Y-91050000D03*
%TO.P,R3,1*%
%TO.N,Net-(R3-Pad1)*%
X128050000Y-87550000D03*
%TD*%
%TO.P,R1,2*%
%TO.N,Net-(D1-A)*%
X120150000Y-91450000D03*
%TO.P,R1,1*%
%TO.N,Net-(R1-Pad1)*%
X120150000Y-87950000D03*
%TD*%
%TO.P,R6,1*%
%TO.N,Net-(R6-Pad1)*%
X148650000Y-93450000D03*
%TO.P,R6,2*%
%TO.N,Net-(D6-A)*%
X152150000Y-93450000D03*
%TD*%
D14*
%TO.P,D6,1,K*%
%TO.N,GND*%
X159650000Y-93325000D03*
D13*
%TO.P,D6,2,A*%
%TO.N,Net-(D6-A)*%
X157110000Y-93325000D03*
%TD*%
D14*
%TO.P,D4,1,K*%
%TO.N,GND*%
X159750000Y-83025000D03*
D13*
%TO.P,D4,2,A*%
%TO.N,Net-(D4-A)*%
X157210000Y-83025000D03*
%TD*%
D11*
%TO.P,U1,14,VDD*%
%TO.N,+5V*%
X143820000Y-66875000D03*
%TO.P,U1,13*%
%TO.N,N/C*%
X143820000Y-69415000D03*
%TO.P,U1,12*%
X143820000Y-71955000D03*
%TO.P,U1,11*%
X143820000Y-74495000D03*
%TO.P,U1,10*%
X143820000Y-77035000D03*
%TO.P,U1,9*%
%TO.N,Net-(R2-Pad1)*%
X143820000Y-79575000D03*
%TO.P,U1,8*%
%TO.N,+5V*%
X143820000Y-82115000D03*
%TO.P,U1,7,VSS*%
%TO.N,GND*%
X136200000Y-82115000D03*
%TO.P,U1,6*%
%TO.N,N/C*%
X136200000Y-79575000D03*
%TO.P,U1,5*%
X136200000Y-77035000D03*
%TO.P,U1,4*%
X136200000Y-74495000D03*
%TO.P,U1,3*%
X136200000Y-71955000D03*
%TO.P,U1,2*%
%TO.N,Net-(R3-Pad1)*%
X136200000Y-69415000D03*
D12*
%TO.P,U1,1*%
%TO.N,Net-(R1-Pad1)*%
X136200000Y-66875000D03*
%TD*%
D15*
%TO.P,S1,A1*%
%TO.N,+5V*%
X120500000Y-74790000D03*
%TO.P,S1,1*%
%TO.N,Net-(R1-Pad1)*%
X120500000Y-82410000D03*
%TD*%
D13*
%TO.P,D2,2,A*%
%TO.N,Net-(D2-A)*%
X126010000Y-101725000D03*
D14*
%TO.P,D2,1,K*%
%TO.N,GND*%
X128550000Y-101725000D03*
%TD*%
D10*
%TO.P,R2,1*%
%TO.N,Net-(R2-Pad1)*%
X148850000Y-71650000D03*
%TO.P,R2,2*%
%TO.N,Net-(D3-A)*%
X152350000Y-71650000D03*
%TD*%
D13*
%TO.P,D1,2,A*%
%TO.N,Net-(D1-A)*%
X120210000Y-101725000D03*
D14*
%TO.P,D1,1,K*%
%TO.N,GND*%
X122750000Y-101725000D03*
%TD*%
D15*
%TO.P,S2,1*%
%TO.N,Net-(R3-Pad1)*%
X128100000Y-82410000D03*
%TO.P,S2,A1*%
%TO.N,+5V*%
X128100000Y-74790000D03*
%TD*%
D16*
%TO.N,GND*%
X133000000Y-69800000D03*
%TD*%
D17*
%TO.N,Net-(R1-Pad1)*%
X136500000Y-86875000D02*
X136500000Y-87000000D01*
X136500000Y-87000000D02*
X136600000Y-87100000D01*
%TD*%
%TA.AperFunction,Conductor*%
%TO.N,GND*%
G36*
X136750000Y-122299314D02*
G01*
X136738045Y-122287359D01*
X136625148Y-122229835D01*
X136531481Y-122215000D01*
X136468519Y-122215000D01*
X136374852Y-122229835D01*
X136261955Y-122287359D01*
X136250000Y-122299314D01*
X136250000Y-120390686D01*
X136261955Y-120402641D01*
X136374852Y-120460165D01*
X136468519Y-120475000D01*
X136531481Y-120475000D01*
X136625148Y-120460165D01*
X136738045Y-120402641D01*
X136750000Y-120390686D01*
X136750000Y-122299314D01*
G37*
%TD.AperFunction*%
%TA.AperFunction,Conductor*%
G36*
X161841512Y-63220945D02*
G01*
X161888390Y-63272754D01*
X161900726Y-63325961D01*
X162099281Y-97775285D01*
X162079983Y-97842437D01*
X162027444Y-97888496D01*
X161975283Y-97900000D01*
X154100000Y-97900000D01*
X146800000Y-106400000D01*
X147098085Y-126173022D01*
X147079413Y-126240350D01*
X147027305Y-126286896D01*
X146973011Y-126298886D01*
X135751742Y-126200453D01*
X135684878Y-126180181D01*
X135663928Y-126162902D01*
X127274586Y-117535001D01*
X135194532Y-117535001D01*
X135214364Y-117761686D01*
X135214366Y-117761697D01*
X135273258Y-117981488D01*
X135273261Y-117981497D01*
X135369431Y-118187732D01*
X135369432Y-118187734D01*
X135499954Y-118374141D01*
X135660858Y-118535045D01*
X135660861Y-118535047D01*
X135847266Y-118665568D01*
X135905865Y-118692893D01*
X135958305Y-118739065D01*
X135977457Y-118806258D01*
X135957242Y-118873139D01*
X135905867Y-118917657D01*
X135847515Y-118944867D01*
X135661179Y-119075342D01*
X135500342Y-119236179D01*
X135369865Y-119422517D01*
X135273734Y-119628673D01*
X135273730Y-119628682D01*
X135221127Y-119824999D01*
X135221128Y-119825000D01*
X136184314Y-119825000D01*
X136172359Y-119836955D01*
X136114835Y-119949852D01*
X136095014Y-120075000D01*
X136114835Y-120200148D01*
X136172359Y-120313045D01*
X136184314Y-120325000D01*
X135221128Y-120325000D01*
X135273730Y-120521317D01*
X135273734Y-120521326D01*
X135369865Y-120727482D01*
X135500342Y-120913820D01*
X135661179Y-121074657D01*
X135847517Y-121205134D01*
X135906457Y-121232618D01*
X135958896Y-121278790D01*
X135978048Y-121345984D01*
X135957832Y-121412865D01*
X135906457Y-121457382D01*
X135847517Y-121484865D01*
X135661179Y-121615342D01*
X135500342Y-121776179D01*
X135369865Y-121962517D01*
X135273734Y-122168673D01*
X135273730Y-122168682D01*
X135221127Y-122364999D01*
X135221128Y-122365000D01*
X136184314Y-122365000D01*
X136172359Y-122376955D01*
X136114835Y-122489852D01*
X136095014Y-122615000D01*
X136114835Y-122740148D01*
X136172359Y-122853045D01*
X136184314Y-122865000D01*
X135221128Y-122865000D01*
X135273730Y-123061317D01*
X135273734Y-123061326D01*
X135369865Y-123267482D01*
X135500342Y-123453820D01*
X135661179Y-123614657D01*
X135847517Y-123745134D01*
X136053673Y-123841265D01*
X136053682Y-123841269D01*
X136249999Y-123893872D01*
X136250000Y-123893871D01*
X136250000Y-122930686D01*
X136261955Y-122942641D01*
X136374852Y-123000165D01*
X136468519Y-123015000D01*
X136531481Y-123015000D01*
X136625148Y-123000165D01*
X136738045Y-122942641D01*
X136750000Y-122930686D01*
X136750000Y-123893872D01*
X136946317Y-123841269D01*
X136946326Y-123841265D01*
X137152482Y-123745134D01*
X137338820Y-123614657D01*
X137499657Y-123453820D01*
X137630134Y-123267482D01*
X137726265Y-123061326D01*
X137726269Y-123061317D01*
X137778872Y-122865000D01*
X136815686Y-122865000D01*
X136827641Y-122853045D01*
X136885165Y-122740148D01*
X136904986Y-122615001D01*
X142814532Y-122615001D01*
X142834364Y-122841686D01*
X142834366Y-122841697D01*
X142893258Y-123061488D01*
X142893261Y-123061497D01*
X142989431Y-123267732D01*
X142989432Y-123267734D01*
X143119954Y-123454141D01*
X143280858Y-123615045D01*
X143280861Y-123615047D01*
X143467266Y-123745568D01*
X143673504Y-123841739D01*
X143893308Y-123900635D01*
X144055230Y-123914801D01*
X144119998Y-123920468D01*
X144120000Y-123920468D01*
X144120002Y-123920468D01*
X144176673Y-123915509D01*
X144346692Y-123900635D01*
X144566496Y-123841739D01*
X144772734Y-123745568D01*
X144959139Y-123615047D01*
X145120047Y-123454139D01*
X145250568Y-123267734D01*
X145346739Y-123061496D01*
X145405635Y-122841692D01*
X145425468Y-122615000D01*
X145405635Y-122388308D01*
X145346739Y-122168504D01*
X145250568Y-121962266D01*
X145120047Y-121775861D01*
X145120045Y-121775858D01*
X144959141Y-121614954D01*
X144772734Y-121484432D01*
X144772728Y-121484429D01*
X144714725Y-121457382D01*
X144662285Y-121411210D01*
X144643133Y-121344017D01*
X144663348Y-121277135D01*
X144714725Y-121232618D01*
X144772734Y-121205568D01*
X144959139Y-121075047D01*
X145120047Y-120914139D01*
X145250568Y-120727734D01*
X145346739Y-120521496D01*
X145405635Y-120301692D01*
X145425468Y-120075000D01*
X145405635Y-119848308D01*
X145346739Y-119628504D01*
X145250568Y-119422266D01*
X145120047Y-119235861D01*
X145120045Y-119235858D01*
X144959141Y-119074954D01*
X144772734Y-118944432D01*
X144772728Y-118944429D01*
X144714725Y-118917382D01*
X144662285Y-118871210D01*
X144643133Y-118804017D01*
X144663348Y-118737135D01*
X144714725Y-118692618D01*
X144772734Y-118665568D01*
X144959139Y-118535047D01*
X145120047Y-118374139D01*
X145250568Y-118187734D01*
X145346739Y-117981496D01*
X145405635Y-117761692D01*
X145425468Y-117535000D01*
X145405635Y-117308308D01*
X145346739Y-117088504D01*
X145250568Y-116882266D01*
X145120047Y-116695861D01*
X145120045Y-116695858D01*
X144959141Y-116534954D01*
X144772734Y-116404432D01*
X144772728Y-116404429D01*
X144714725Y-116377382D01*
X144662285Y-116331210D01*
X144643133Y-116264017D01*
X144663348Y-116197135D01*
X144714725Y-116152618D01*
X144772734Y-116125568D01*
X144959139Y-115995047D01*
X145120047Y-115834139D01*
X145250568Y-115647734D01*
X145346739Y-115441496D01*
X145405635Y-115221692D01*
X145425468Y-114995000D01*
X145405635Y-114768308D01*
X145346739Y-114548504D01*
X145250568Y-114342266D01*
X145120047Y-114155861D01*
X145120045Y-114155858D01*
X144959141Y-113994954D01*
X144772734Y-113864432D01*
X144772728Y-113864429D01*
X144714725Y-113837382D01*
X144662285Y-113791210D01*
X144643133Y-113724017D01*
X144663348Y-113657135D01*
X144714725Y-113612618D01*
X144772734Y-113585568D01*
X144959139Y-113455047D01*
X145120047Y-113294139D01*
X145250568Y-113107734D01*
X145346739Y-112901496D01*
X145405635Y-112681692D01*
X145425468Y-112455000D01*
X145405635Y-112228308D01*
X145346739Y-112008504D01*
X145250568Y-111802266D01*
X145120047Y-111615861D01*
X145120045Y-111615858D01*
X144959141Y-111454954D01*
X144772734Y-111324432D01*
X144772728Y-111324429D01*
X144714725Y-111297382D01*
X144662285Y-111251210D01*
X144643133Y-111184017D01*
X144663348Y-111117135D01*
X144714725Y-111072618D01*
X144772734Y-111045568D01*
X144959139Y-110915047D01*
X145120047Y-110754139D01*
X145250568Y-110567734D01*
X145346739Y-110361496D01*
X145405635Y-110141692D01*
X145425468Y-109915000D01*
X145405635Y-109688308D01*
X145346739Y-109468504D01*
X145250568Y-109262266D01*
X145120047Y-109075861D01*
X145120045Y-109075858D01*
X144959141Y-108914954D01*
X144772734Y-108784432D01*
X144772728Y-108784429D01*
X144714725Y-108757382D01*
X144662285Y-108711210D01*
X144643133Y-108644017D01*
X144663348Y-108577135D01*
X144714725Y-108532618D01*
X144772734Y-108505568D01*
X144959139Y-108375047D01*
X145120047Y-108214139D01*
X145250568Y-108027734D01*
X145346739Y-107821496D01*
X145405635Y-107601692D01*
X145425468Y-107375000D01*
X145405635Y-107148308D01*
X145346739Y-106928504D01*
X145250568Y-106722266D01*
X145120047Y-106535861D01*
X145120045Y-106535858D01*
X144959141Y-106374954D01*
X144772734Y-106244432D01*
X144772732Y-106244431D01*
X144566497Y-106148261D01*
X144566488Y-106148258D01*
X144346697Y-106089366D01*
X144346693Y-106089365D01*
X144346692Y-106089365D01*
X144346691Y-106089364D01*
X144346686Y-106089364D01*
X144120002Y-106069532D01*
X144119998Y-106069532D01*
X143893313Y-106089364D01*
X143893302Y-106089366D01*
X143673511Y-106148258D01*
X143673502Y-106148261D01*
X143467267Y-106244431D01*
X143467265Y-106244432D01*
X143280858Y-106374954D01*
X143119954Y-106535858D01*
X142989432Y-106722265D01*
X142989431Y-106722267D01*
X142893261Y-106928502D01*
X142893258Y-106928511D01*
X142834366Y-107148302D01*
X142834364Y-107148313D01*
X142814532Y-107374998D01*
X142814532Y-107375001D01*
X142834364Y-107601686D01*
X142834366Y-107601697D01*
X142893258Y-107821488D01*
X142893261Y-107821497D01*
X142989431Y-108027732D01*
X142989432Y-108027734D01*
X143119954Y-108214141D01*
X143280858Y-108375045D01*
X143280861Y-108375047D01*
X143467266Y-108505568D01*
X143525275Y-108532618D01*
X143577714Y-108578791D01*
X143596866Y-108645984D01*
X143576650Y-108712865D01*
X143525275Y-108757382D01*
X143467267Y-108784431D01*
X143467265Y-108784432D01*
X143280858Y-108914954D01*
X143119954Y-109075858D01*
X142989432Y-109262265D01*
X142989431Y-109262267D01*
X142893261Y-109468502D01*
X142893258Y-109468511D01*
X142834366Y-109688302D01*
X142834364Y-109688313D01*
X142814532Y-109914998D01*
X142814532Y-109915001D01*
X142834364Y-110141686D01*
X142834366Y-110141697D01*
X142893258Y-110361488D01*
X142893261Y-110361497D01*
X142989431Y-110567732D01*
X142989432Y-110567734D01*
X143119954Y-110754141D01*
X143280858Y-110915045D01*
X143280861Y-110915047D01*
X143467266Y-111045568D01*
X143525275Y-111072618D01*
X143577714Y-111118791D01*
X143596866Y-111185984D01*
X143576650Y-111252865D01*
X143525275Y-111297382D01*
X143467267Y-111324431D01*
X143467265Y-111324432D01*
X143280858Y-111454954D01*
X143119954Y-111615858D01*
X142989432Y-111802265D01*
X142989431Y-111802267D01*
X142893261Y-112008502D01*
X142893258Y-112008511D01*
X142834366Y-112228302D01*
X142834364Y-112228313D01*
X142814532Y-112454998D01*
X142814532Y-112455001D01*
X142834364Y-112681686D01*
X142834366Y-112681697D01*
X142893258Y-112901488D01*
X142893261Y-112901497D01*
X142989431Y-113107732D01*
X142989432Y-113107734D01*
X143119954Y-113294141D01*
X143280858Y-113455045D01*
X143280861Y-113455047D01*
X143467266Y-113585568D01*
X143525275Y-113612618D01*
X143577714Y-113658791D01*
X143596866Y-113725984D01*
X143576650Y-113792865D01*
X143525275Y-113837382D01*
X143467267Y-113864431D01*
X143467265Y-113864432D01*
X143280858Y-113994954D01*
X143119954Y-114155858D01*
X142989432Y-114342265D01*
X142989431Y-114342267D01*
X142893261Y-114548502D01*
X142893258Y-114548511D01*
X142834366Y-114768302D01*
X142834364Y-114768313D01*
X142814532Y-114994998D01*
X142814532Y-114995001D01*
X142834364Y-115221686D01*
X142834366Y-115221697D01*
X142893258Y-115441488D01*
X142893261Y-115441497D01*
X142989431Y-115647732D01*
X142989432Y-115647734D01*
X143119954Y-115834141D01*
X143280858Y-115995045D01*
X143280861Y-115995047D01*
X143467266Y-116125568D01*
X143525275Y-116152618D01*
X143577714Y-116198791D01*
X143596866Y-116265984D01*
X143576650Y-116332865D01*
X143525275Y-116377382D01*
X143467267Y-116404431D01*
X143467265Y-116404432D01*
X143280858Y-116534954D01*
X143119954Y-116695858D01*
X142989432Y-116882265D01*
X142989431Y-116882267D01*
X142893261Y-117088502D01*
X142893258Y-117088511D01*
X142834366Y-117308302D01*
X142834364Y-117308313D01*
X142814532Y-117534998D01*
X142814532Y-117535001D01*
X142834364Y-117761686D01*
X142834366Y-117761697D01*
X142893258Y-117981488D01*
X142893261Y-117981497D01*
X142989431Y-118187732D01*
X142989432Y-118187734D01*
X143119954Y-118374141D01*
X143280858Y-118535045D01*
X143280861Y-118535047D01*
X143467266Y-118665568D01*
X143525275Y-118692618D01*
X143577714Y-118738791D01*
X143596866Y-118805984D01*
X143576650Y-118872865D01*
X143525275Y-118917382D01*
X143467267Y-118944431D01*
X143467265Y-118944432D01*
X143280858Y-119074954D01*
X143119954Y-119235858D01*
X142989432Y-119422265D01*
X142989431Y-119422267D01*
X142893261Y-119628502D01*
X142893258Y-119628511D01*
X142834366Y-119848302D01*
X142834364Y-119848313D01*
X142814532Y-120074998D01*
X142814532Y-120075001D01*
X142834364Y-120301686D01*
X142834366Y-120301697D01*
X142893258Y-120521488D01*
X142893261Y-120521497D01*
X142989431Y-120727732D01*
X142989432Y-120727734D01*
X143119954Y-120914141D01*
X143280858Y-121075045D01*
X143280861Y-121075047D01*
X143467266Y-121205568D01*
X143525275Y-121232618D01*
X143577714Y-121278791D01*
X143596866Y-121345984D01*
X143576650Y-121412865D01*
X143525275Y-121457382D01*
X143467267Y-121484431D01*
X143467265Y-121484432D01*
X143280858Y-121614954D01*
X143119954Y-121775858D01*
X142989432Y-121962265D01*
X142989431Y-121962267D01*
X142893261Y-122168502D01*
X142893258Y-122168511D01*
X142834366Y-122388302D01*
X142834364Y-122388313D01*
X142814532Y-122614998D01*
X142814532Y-122615001D01*
X136904986Y-122615001D01*
X136904986Y-122615000D01*
X136885165Y-122489852D01*
X136827641Y-122376955D01*
X136815686Y-122365000D01*
X137778872Y-122365000D01*
X137778872Y-122364999D01*
X137726269Y-122168682D01*
X137726265Y-122168673D01*
X137630134Y-121962517D01*
X137499657Y-121776179D01*
X137338820Y-121615342D01*
X137152481Y-121484865D01*
X137152479Y-121484864D01*
X137093543Y-121457382D01*
X137041103Y-121411210D01*
X137021951Y-121344017D01*
X137042166Y-121277136D01*
X137093543Y-121232618D01*
X137152479Y-121205135D01*
X137152481Y-121205134D01*
X137338820Y-121074657D01*
X137499657Y-120913820D01*
X137630134Y-120727482D01*
X137726265Y-120521326D01*
X137726269Y-120521317D01*
X137778872Y-120325000D01*
X136815686Y-120325000D01*
X136827641Y-120313045D01*
X136885165Y-120200148D01*
X136904986Y-120075000D01*
X136885165Y-119949852D01*
X136827641Y-119836955D01*
X136815686Y-119825000D01*
X137778872Y-119825000D01*
X137778872Y-119824999D01*
X137726269Y-119628682D01*
X137726265Y-119628673D01*
X137630134Y-119422517D01*
X137499657Y-119236179D01*
X137338820Y-119075342D01*
X137152482Y-118944865D01*
X137094133Y-118917657D01*
X137041694Y-118871484D01*
X137022542Y-118804291D01*
X137042758Y-118737410D01*
X137094129Y-118692895D01*
X137152734Y-118665568D01*
X137339139Y-118535047D01*
X137500047Y-118374139D01*
X137630568Y-118187734D01*
X137726739Y-117981496D01*
X137785635Y-117761692D01*
X137805468Y-117535000D01*
X137785635Y-117308308D01*
X137726739Y-117088504D01*
X137630568Y-116882266D01*
X137500047Y-116695861D01*
X137500045Y-116695858D01*
X137339141Y-116534954D01*
X137152734Y-116404432D01*
X137152728Y-116404429D01*
X137094725Y-116377382D01*
X137042285Y-116331210D01*
X137023133Y-116264017D01*
X137043348Y-116197135D01*
X137094725Y-116152618D01*
X137152734Y-116125568D01*
X137339139Y-115995047D01*
X137500047Y-115834139D01*
X137630568Y-115647734D01*
X137726739Y-115441496D01*
X137785635Y-115221692D01*
X137805468Y-114995000D01*
X137785635Y-114768308D01*
X137726739Y-114548504D01*
X137630568Y-114342266D01*
X137500047Y-114155861D01*
X137500045Y-114155858D01*
X137339141Y-113994954D01*
X137152734Y-113864432D01*
X137152728Y-113864429D01*
X137094725Y-113837382D01*
X137042285Y-113791210D01*
X137023133Y-113724017D01*
X137043348Y-113657135D01*
X137094725Y-113612618D01*
X137152734Y-113585568D01*
X137339139Y-113455047D01*
X137500047Y-113294139D01*
X137630568Y-113107734D01*
X137726739Y-112901496D01*
X137785635Y-112681692D01*
X137805468Y-112455000D01*
X137785635Y-112228308D01*
X137726739Y-112008504D01*
X137630568Y-111802266D01*
X137500047Y-111615861D01*
X137500045Y-111615858D01*
X137339141Y-111454954D01*
X137152734Y-111324432D01*
X137152728Y-111324429D01*
X137094725Y-111297382D01*
X137042285Y-111251210D01*
X137023133Y-111184017D01*
X137043348Y-111117135D01*
X137094725Y-111072618D01*
X137152734Y-111045568D01*
X137339139Y-110915047D01*
X137500047Y-110754139D01*
X137630568Y-110567734D01*
X137726739Y-110361496D01*
X137785635Y-110141692D01*
X137805468Y-109915000D01*
X137785635Y-109688308D01*
X137726739Y-109468504D01*
X137630568Y-109262266D01*
X137500047Y-109075861D01*
X137500045Y-109075858D01*
X137339143Y-108914956D01*
X137314536Y-108897726D01*
X137270912Y-108843149D01*
X137263719Y-108773650D01*
X137295241Y-108711296D01*
X137355471Y-108675882D01*
X137372404Y-108672861D01*
X137407483Y-108669091D01*
X137542331Y-108618796D01*
X137657546Y-108532546D01*
X137743796Y-108417331D01*
X137794091Y-108282483D01*
X137800500Y-108222873D01*
X137800499Y-106527128D01*
X137794091Y-106467517D01*
X137759567Y-106374954D01*
X137743797Y-106332671D01*
X137743793Y-106332664D01*
X137657547Y-106217455D01*
X137657544Y-106217452D01*
X137542335Y-106131206D01*
X137542328Y-106131202D01*
X137407482Y-106080908D01*
X137407483Y-106080908D01*
X137347883Y-106074501D01*
X137347881Y-106074500D01*
X137347873Y-106074500D01*
X137347864Y-106074500D01*
X135652129Y-106074500D01*
X135652123Y-106074501D01*
X135592516Y-106080908D01*
X135457671Y-106131202D01*
X135457664Y-106131206D01*
X135342455Y-106217452D01*
X135342452Y-106217455D01*
X135256206Y-106332664D01*
X135256202Y-106332671D01*
X135205908Y-106467517D01*
X135199501Y-106527116D01*
X135199501Y-106527123D01*
X135199500Y-106527135D01*
X135199500Y-108222870D01*
X135199501Y-108222876D01*
X135205908Y-108282483D01*
X135256202Y-108417328D01*
X135256206Y-108417335D01*
X135342452Y-108532544D01*
X135342455Y-108532547D01*
X135457664Y-108618793D01*
X135457671Y-108618797D01*
X135502618Y-108635561D01*
X135592517Y-108669091D01*
X135627596Y-108672862D01*
X135692144Y-108699599D01*
X135731993Y-108756991D01*
X135734488Y-108826816D01*
X135698836Y-108886905D01*
X135685464Y-108897725D01*
X135660858Y-108914954D01*
X135499954Y-109075858D01*
X135369432Y-109262265D01*
X135369431Y-109262267D01*
X135273261Y-109468502D01*
X135273258Y-109468511D01*
X135214366Y-109688302D01*
X135214364Y-109688313D01*
X135194532Y-109914998D01*
X135194532Y-109915001D01*
X135214364Y-110141686D01*
X135214366Y-110141697D01*
X135273258Y-110361488D01*
X135273261Y-110361497D01*
X135369431Y-110567732D01*
X135369432Y-110567734D01*
X135499954Y-110754141D01*
X135660858Y-110915045D01*
X135660861Y-110915047D01*
X135847266Y-111045568D01*
X135905275Y-111072618D01*
X135957714Y-111118791D01*
X135976866Y-111185984D01*
X135956650Y-111252865D01*
X135905275Y-111297382D01*
X135847267Y-111324431D01*
X135847265Y-111324432D01*
X135660858Y-111454954D01*
X135499954Y-111615858D01*
X135369432Y-111802265D01*
X135369431Y-111802267D01*
X135273261Y-112008502D01*
X135273258Y-112008511D01*
X135214366Y-112228302D01*
X135214364Y-112228313D01*
X135194532Y-112454998D01*
X135194532Y-112455001D01*
X135214364Y-112681686D01*
X135214366Y-112681697D01*
X135273258Y-112901488D01*
X135273261Y-112901497D01*
X135369431Y-113107732D01*
X135369432Y-113107734D01*
X135499954Y-113294141D01*
X135660858Y-113455045D01*
X135660861Y-113455047D01*
X135847266Y-113585568D01*
X135905275Y-113612618D01*
X135957714Y-113658791D01*
X135976866Y-113725984D01*
X135956650Y-113792865D01*
X135905275Y-113837382D01*
X135847267Y-113864431D01*
X135847265Y-113864432D01*
X135660858Y-113994954D01*
X135499954Y-114155858D01*
X135369432Y-114342265D01*
X135369431Y-114342267D01*
X135273261Y-114548502D01*
X135273258Y-114548511D01*
X135214366Y-114768302D01*
X135214364Y-114768313D01*
X135194532Y-114994998D01*
X135194532Y-114995001D01*
X135214364Y-115221686D01*
X135214366Y-115221697D01*
X135273258Y-115441488D01*
X135273261Y-115441497D01*
X135369431Y-115647732D01*
X135369432Y-115647734D01*
X135499954Y-115834141D01*
X135660858Y-115995045D01*
X135660861Y-115995047D01*
X135847266Y-116125568D01*
X135905275Y-116152618D01*
X135957714Y-116198791D01*
X135976866Y-116265984D01*
X135956650Y-116332865D01*
X135905275Y-116377382D01*
X135847267Y-116404431D01*
X135847265Y-116404432D01*
X135660858Y-116534954D01*
X135499954Y-116695858D01*
X135369432Y-116882265D01*
X135369431Y-116882267D01*
X135273261Y-117088502D01*
X135273258Y-117088511D01*
X135214366Y-117308302D01*
X135214364Y-117308313D01*
X135194532Y-117534998D01*
X135194532Y-117535001D01*
X127274586Y-117535001D01*
X114635241Y-104536243D01*
X114602619Y-104474456D01*
X114600144Y-104449446D01*
X114604239Y-103011938D01*
X114607905Y-101725006D01*
X118804700Y-101725006D01*
X118823864Y-101956297D01*
X118823866Y-101956308D01*
X118880842Y-102181300D01*
X118974075Y-102393848D01*
X119101016Y-102588147D01*
X119101019Y-102588151D01*
X119101021Y-102588153D01*
X119258216Y-102758913D01*
X119258219Y-102758915D01*
X119258222Y-102758918D01*
X119441365Y-102901464D01*
X119441371Y-102901468D01*
X119441374Y-102901470D01*
X119645497Y-103011936D01*
X119759487Y-103051068D01*
X119865015Y-103087297D01*
X119865017Y-103087297D01*
X119865019Y-103087298D01*
X120093951Y-103125500D01*
X120093952Y-103125500D01*
X120326048Y-103125500D01*
X120326049Y-103125500D01*
X120554981Y-103087298D01*
X120774503Y-103011936D01*
X120978626Y-102901470D01*
X121161784Y-102758913D01*
X121170511Y-102749432D01*
X121230394Y-102713441D01*
X121300232Y-102715538D01*
X121357850Y-102755060D01*
X121377924Y-102790080D01*
X121406645Y-102867086D01*
X121406649Y-102867093D01*
X121492809Y-102982187D01*
X121492812Y-102982190D01*
X121607906Y-103068350D01*
X121607913Y-103068354D01*
X121742620Y-103118596D01*
X121742627Y-103118598D01*
X121802155Y-103124999D01*
X121802172Y-103125000D01*
X122500000Y-103125000D01*
X122500000Y-102099189D01*
X122552547Y-102135016D01*
X122682173Y-102175000D01*
X122783724Y-102175000D01*
X122884138Y-102159865D01*
X123000000Y-102104068D01*
X123000000Y-103125000D01*
X123697828Y-103125000D01*
X123697844Y-103124999D01*
X123757372Y-103118598D01*
X123757379Y-103118596D01*
X123892086Y-103068354D01*
X123892093Y-103068350D01*
X124007187Y-102982190D01*
X124007190Y-102982187D01*
X124093350Y-102867093D01*
X124093354Y-102867086D01*
X124143596Y-102732379D01*
X124143598Y-102732372D01*
X124149999Y-102672844D01*
X124150000Y-102672827D01*
X124150000Y-101975000D01*
X123125278Y-101975000D01*
X123173625Y-101891260D01*
X123203810Y-101759008D01*
X123201262Y-101725006D01*
X124604700Y-101725006D01*
X124623864Y-101956297D01*
X124623866Y-101956308D01*
X124680842Y-102181300D01*
X124774075Y-102393848D01*
X124901016Y-102588147D01*
X124901019Y-102588151D01*
X124901021Y-102588153D01*
X125058216Y-102758913D01*
X125058219Y-102758915D01*
X125058222Y-102758918D01*
X125241365Y-102901464D01*
X125241371Y-102901468D01*
X125241374Y-102901470D01*
X125445497Y-103011936D01*
X125559487Y-103051068D01*
X125665015Y-103087297D01*
X125665017Y-103087297D01*
X125665019Y-103087298D01*
X125893951Y-103125500D01*
X125893952Y-103125500D01*
X126126048Y-103125500D01*
X126126049Y-103125500D01*
X126354981Y-103087298D01*
X126574503Y-103011936D01*
X126778626Y-102901470D01*
X126961784Y-102758913D01*
X126970511Y-102749432D01*
X127030394Y-102713441D01*
X127100232Y-102715538D01*
X127157850Y-102755060D01*
X127177924Y-102790080D01*
X127206645Y-102867086D01*
X127206649Y-102867093D01*
X127292809Y-102982187D01*
X127292812Y-102982190D01*
X127407906Y-103068350D01*
X127407913Y-103068354D01*
X127542620Y-103118596D01*
X127542627Y-103118598D01*
X127602155Y-103124999D01*
X127602172Y-103125000D01*
X128300000Y-103125000D01*
X128300000Y-102099189D01*
X128352547Y-102135016D01*
X128482173Y-102175000D01*
X128583724Y-102175000D01*
X128684138Y-102159865D01*
X128800000Y-102104068D01*
X128800000Y-103125000D01*
X129497828Y-103125000D01*
X129497844Y-103124999D01*
X129557372Y-103118598D01*
X129557379Y-103118596D01*
X129692086Y-103068354D01*
X129692093Y-103068350D01*
X129807187Y-102982190D01*
X129807190Y-102982187D01*
X129893350Y-102867093D01*
X129893354Y-102867086D01*
X129943596Y-102732379D01*
X129943598Y-102732372D01*
X129949999Y-102672844D01*
X129950000Y-102672827D01*
X129950000Y-101975000D01*
X128925278Y-101975000D01*
X128973625Y-101891260D01*
X129003810Y-101759008D01*
X128993673Y-101623735D01*
X128944113Y-101497459D01*
X128926203Y-101475000D01*
X129950000Y-101475000D01*
X129950000Y-100777172D01*
X129949999Y-100777155D01*
X129943598Y-100717627D01*
X129943596Y-100717620D01*
X129893354Y-100582913D01*
X129893350Y-100582906D01*
X129807190Y-100467812D01*
X129807187Y-100467809D01*
X129692093Y-100381649D01*
X129692086Y-100381645D01*
X129557379Y-100331403D01*
X129557372Y-100331401D01*
X129497844Y-100325000D01*
X128800000Y-100325000D01*
X128800000Y-101350810D01*
X128747453Y-101314984D01*
X128617827Y-101275000D01*
X128516276Y-101275000D01*
X128415862Y-101290135D01*
X128300000Y-101345931D01*
X128300000Y-100325000D01*
X127602155Y-100325000D01*
X127542627Y-100331401D01*
X127542620Y-100331403D01*
X127407913Y-100381645D01*
X127407906Y-100381649D01*
X127292812Y-100467809D01*
X127292809Y-100467812D01*
X127206649Y-100582906D01*
X127206646Y-100582911D01*
X127177924Y-100659920D01*
X127136052Y-100715853D01*
X127070588Y-100740270D01*
X127002315Y-100725418D01*
X126970514Y-100700571D01*
X126961784Y-100691087D01*
X126961779Y-100691083D01*
X126961777Y-100691081D01*
X126778634Y-100548535D01*
X126778628Y-100548531D01*
X126574504Y-100438064D01*
X126574495Y-100438061D01*
X126354984Y-100362702D01*
X126167404Y-100331401D01*
X126126049Y-100324500D01*
X125893951Y-100324500D01*
X125852596Y-100331401D01*
X125665015Y-100362702D01*
X125445504Y-100438061D01*
X125445495Y-100438064D01*
X125241371Y-100548531D01*
X125241365Y-100548535D01*
X125058222Y-100691081D01*
X125058219Y-100691084D01*
X125058216Y-100691086D01*
X125058216Y-100691087D01*
X125033791Y-100717620D01*
X124901016Y-100861852D01*
X124774075Y-101056151D01*
X124680842Y-101268699D01*
X124623866Y-101493691D01*
X124623864Y-101493702D01*
X124604700Y-101724993D01*
X124604700Y-101725006D01*
X123201262Y-101725006D01*
X123193673Y-101623735D01*
X123144113Y-101497459D01*
X123126203Y-101475000D01*
X124150000Y-101475000D01*
X124150000Y-100777172D01*
X124149999Y-100777155D01*
X124143598Y-100717627D01*
X124143596Y-100717620D01*
X124093354Y-100582913D01*
X124093350Y-100582906D01*
X124007190Y-100467812D01*
X124007187Y-100467809D01*
X123892093Y-100381649D01*
X123892086Y-100381645D01*
X123757379Y-100331403D01*
X123757372Y-100331401D01*
X123697844Y-100325000D01*
X123000000Y-100325000D01*
X123000000Y-101350810D01*
X122947453Y-101314984D01*
X122817827Y-101275000D01*
X122716276Y-101275000D01*
X122615862Y-101290135D01*
X122500000Y-101345931D01*
X122500000Y-100325000D01*
X121802155Y-100325000D01*
X121742627Y-100331401D01*
X121742620Y-100331403D01*
X121607913Y-100381645D01*
X121607906Y-100381649D01*
X121492812Y-100467809D01*
X121492809Y-100467812D01*
X121406649Y-100582906D01*
X121406646Y-100582911D01*
X121377924Y-100659920D01*
X121336052Y-100715853D01*
X121270588Y-100740270D01*
X121202315Y-100725418D01*
X121170514Y-100700571D01*
X121161784Y-100691087D01*
X121161779Y-100691083D01*
X121161777Y-100691081D01*
X120978634Y-100548535D01*
X120978628Y-100548531D01*
X120774504Y-100438064D01*
X120774495Y-100438061D01*
X120554984Y-100362702D01*
X120367404Y-100331401D01*
X120326049Y-100324500D01*
X120093951Y-100324500D01*
X120052596Y-100331401D01*
X119865015Y-100362702D01*
X119645504Y-100438061D01*
X119645495Y-100438064D01*
X119441371Y-100548531D01*
X119441365Y-100548535D01*
X119258222Y-100691081D01*
X119258219Y-100691084D01*
X119258216Y-100691086D01*
X119258216Y-100691087D01*
X119233791Y-100717620D01*
X119101016Y-100861852D01*
X118974075Y-101056151D01*
X118880842Y-101268699D01*
X118823866Y-101493691D01*
X118823864Y-101493702D01*
X118804700Y-101724993D01*
X118804700Y-101725006D01*
X114607905Y-101725006D01*
X114614030Y-99575001D01*
X135194532Y-99575001D01*
X135214364Y-99801686D01*
X135214366Y-99801697D01*
X135273258Y-100021488D01*
X135273261Y-100021497D01*
X135369431Y-100227732D01*
X135369432Y-100227734D01*
X135499954Y-100414141D01*
X135660858Y-100575045D01*
X135660861Y-100575047D01*
X135847266Y-100705568D01*
X135905865Y-100732893D01*
X135958305Y-100779065D01*
X135977457Y-100846258D01*
X135957242Y-100913139D01*
X135905867Y-100957657D01*
X135847515Y-100984867D01*
X135661179Y-101115342D01*
X135500342Y-101276179D01*
X135369865Y-101462517D01*
X135273734Y-101668673D01*
X135273730Y-101668682D01*
X135221127Y-101864999D01*
X135221128Y-101865000D01*
X136184314Y-101865000D01*
X136172359Y-101876955D01*
X136114835Y-101989852D01*
X136095014Y-102115000D01*
X136114835Y-102240148D01*
X136172359Y-102353045D01*
X136184314Y-102365000D01*
X135221128Y-102365000D01*
X135273730Y-102561317D01*
X135273734Y-102561326D01*
X135369865Y-102767482D01*
X135500342Y-102953820D01*
X135661179Y-103114657D01*
X135847517Y-103245134D01*
X136053673Y-103341265D01*
X136053682Y-103341269D01*
X136249999Y-103393872D01*
X136250000Y-103393871D01*
X136250000Y-102430686D01*
X136261955Y-102442641D01*
X136374852Y-102500165D01*
X136468519Y-102515000D01*
X136531481Y-102515000D01*
X136625148Y-102500165D01*
X136738045Y-102442641D01*
X136750000Y-102430686D01*
X136750000Y-103393872D01*
X136946317Y-103341269D01*
X136946326Y-103341265D01*
X137152482Y-103245134D01*
X137338820Y-103114657D01*
X137499657Y-102953820D01*
X137630134Y-102767482D01*
X137726265Y-102561326D01*
X137726269Y-102561317D01*
X137778872Y-102365000D01*
X136815686Y-102365000D01*
X136827641Y-102353045D01*
X136885165Y-102240148D01*
X136904986Y-102115001D01*
X142814532Y-102115001D01*
X142834364Y-102341686D01*
X142834366Y-102341697D01*
X142893258Y-102561488D01*
X142893261Y-102561497D01*
X142989431Y-102767732D01*
X142989432Y-102767734D01*
X143119954Y-102954141D01*
X143280858Y-103115045D01*
X143327693Y-103147839D01*
X143467266Y-103245568D01*
X143673504Y-103341739D01*
X143893308Y-103400635D01*
X144055230Y-103414801D01*
X144119998Y-103420468D01*
X144120000Y-103420468D01*
X144120002Y-103420468D01*
X144176673Y-103415509D01*
X144346692Y-103400635D01*
X144566496Y-103341739D01*
X144772734Y-103245568D01*
X144959139Y-103115047D01*
X145120047Y-102954139D01*
X145250568Y-102767734D01*
X145346739Y-102561496D01*
X145405635Y-102341692D01*
X145425468Y-102115000D01*
X145405635Y-101888308D01*
X145346739Y-101668504D01*
X145250568Y-101462266D01*
X145120047Y-101275861D01*
X145120045Y-101275858D01*
X144959141Y-101114954D01*
X144772734Y-100984432D01*
X144772728Y-100984429D01*
X144714725Y-100957382D01*
X144662285Y-100911210D01*
X144643133Y-100844017D01*
X144663348Y-100777135D01*
X144714725Y-100732618D01*
X144772734Y-100705568D01*
X144959139Y-100575047D01*
X145120047Y-100414139D01*
X145250568Y-100227734D01*
X145346739Y-100021496D01*
X145405635Y-99801692D01*
X145425468Y-99575000D01*
X145405635Y-99348308D01*
X145346739Y-99128504D01*
X145250568Y-98922266D01*
X145120047Y-98735861D01*
X145120045Y-98735858D01*
X144959141Y-98574954D01*
X144772734Y-98444432D01*
X144772728Y-98444429D01*
X144714725Y-98417382D01*
X144662285Y-98371210D01*
X144643133Y-98304017D01*
X144663348Y-98237135D01*
X144714725Y-98192618D01*
X144772734Y-98165568D01*
X144959139Y-98035047D01*
X145120047Y-97874139D01*
X145250568Y-97687734D01*
X145346739Y-97481496D01*
X145405635Y-97261692D01*
X145425468Y-97035000D01*
X145405635Y-96808308D01*
X145346739Y-96588504D01*
X145250568Y-96382266D01*
X145120047Y-96195861D01*
X145120045Y-96195858D01*
X144959141Y-96034954D01*
X144772734Y-95904432D01*
X144772728Y-95904429D01*
X144714725Y-95877382D01*
X144662285Y-95831210D01*
X144643133Y-95764017D01*
X144663348Y-95697135D01*
X144714725Y-95652618D01*
X144772734Y-95625568D01*
X144959139Y-95495047D01*
X145120047Y-95334139D01*
X145250568Y-95147734D01*
X145346739Y-94941496D01*
X145405635Y-94721692D01*
X145424902Y-94501468D01*
X145425468Y-94495001D01*
X145425468Y-94494998D01*
X145413225Y-94355060D01*
X145405635Y-94268308D01*
X145346739Y-94048504D01*
X145250568Y-93842266D01*
X145120047Y-93655861D01*
X145120045Y-93655858D01*
X144959141Y-93494954D01*
X144894941Y-93450001D01*
X147344532Y-93450001D01*
X147364364Y-93676686D01*
X147364366Y-93676697D01*
X147423258Y-93896488D01*
X147423261Y-93896497D01*
X147519431Y-94102732D01*
X147519432Y-94102734D01*
X147649954Y-94289141D01*
X147810858Y-94450045D01*
X147810861Y-94450047D01*
X147997266Y-94580568D01*
X148203504Y-94676739D01*
X148423308Y-94735635D01*
X148585230Y-94749801D01*
X148649998Y-94755468D01*
X148650000Y-94755468D01*
X148650002Y-94755468D01*
X148706673Y-94750509D01*
X148876692Y-94735635D01*
X149096496Y-94676739D01*
X149302734Y-94580568D01*
X149489139Y-94450047D01*
X149650047Y-94289139D01*
X149780568Y-94102734D01*
X149876739Y-93896496D01*
X149935635Y-93676692D01*
X149955468Y-93450001D01*
X150844532Y-93450001D01*
X150864364Y-93676686D01*
X150864366Y-93676697D01*
X150923258Y-93896488D01*
X150923261Y-93896497D01*
X151019431Y-94102732D01*
X151019432Y-94102734D01*
X151149954Y-94289141D01*
X151310858Y-94450045D01*
X151310861Y-94450047D01*
X151497266Y-94580568D01*
X151703504Y-94676739D01*
X151923308Y-94735635D01*
X152085230Y-94749801D01*
X152149998Y-94755468D01*
X152150000Y-94755468D01*
X152150002Y-94755468D01*
X152206673Y-94750509D01*
X152376692Y-94735635D01*
X152596496Y-94676739D01*
X152802734Y-94580568D01*
X152989139Y-94450047D01*
X153150047Y-94289139D01*
X153280568Y-94102734D01*
X153376739Y-93896496D01*
X153435635Y-93676692D01*
X153455468Y-93450000D01*
X153453391Y-93426265D01*
X153447982Y-93364431D01*
X153444533Y-93325006D01*
X155704700Y-93325006D01*
X155723864Y-93556297D01*
X155723866Y-93556308D01*
X155780842Y-93781300D01*
X155874075Y-93993848D01*
X156001016Y-94188147D01*
X156001019Y-94188151D01*
X156001021Y-94188153D01*
X156158216Y-94358913D01*
X156158219Y-94358915D01*
X156158222Y-94358918D01*
X156341365Y-94501464D01*
X156341371Y-94501468D01*
X156341374Y-94501470D01*
X156545497Y-94611936D01*
X156659487Y-94651068D01*
X156765015Y-94687297D01*
X156765017Y-94687297D01*
X156765019Y-94687298D01*
X156993951Y-94725500D01*
X156993952Y-94725500D01*
X157226048Y-94725500D01*
X157226049Y-94725500D01*
X157454981Y-94687298D01*
X157674503Y-94611936D01*
X157878626Y-94501470D01*
X157886938Y-94495001D01*
X158021740Y-94390080D01*
X158061784Y-94358913D01*
X158070511Y-94349432D01*
X158130394Y-94313441D01*
X158200232Y-94315538D01*
X158257850Y-94355060D01*
X158277924Y-94390080D01*
X158306645Y-94467086D01*
X158306649Y-94467093D01*
X158392809Y-94582187D01*
X158392812Y-94582190D01*
X158507906Y-94668350D01*
X158507913Y-94668354D01*
X158642620Y-94718596D01*
X158642627Y-94718598D01*
X158702155Y-94724999D01*
X158702172Y-94725000D01*
X159400000Y-94725000D01*
X159400000Y-93699189D01*
X159452547Y-93735016D01*
X159582173Y-93775000D01*
X159683724Y-93775000D01*
X159784138Y-93759865D01*
X159900000Y-93704068D01*
X159900000Y-94725000D01*
X160597828Y-94725000D01*
X160597844Y-94724999D01*
X160657372Y-94718598D01*
X160657379Y-94718596D01*
X160792086Y-94668354D01*
X160792093Y-94668350D01*
X160907187Y-94582190D01*
X160907190Y-94582187D01*
X160993350Y-94467093D01*
X160993354Y-94467086D01*
X161043596Y-94332379D01*
X161043598Y-94332372D01*
X161049999Y-94272844D01*
X161050000Y-94272827D01*
X161050000Y-93575000D01*
X160025278Y-93575000D01*
X160073625Y-93491260D01*
X160103810Y-93359008D01*
X160093673Y-93223735D01*
X160044113Y-93097459D01*
X160026203Y-93075000D01*
X161050000Y-93075000D01*
X161050000Y-92377172D01*
X161049999Y-92377155D01*
X161043598Y-92317627D01*
X161043596Y-92317620D01*
X160993354Y-92182913D01*
X160993350Y-92182906D01*
X160907190Y-92067812D01*
X160907187Y-92067809D01*
X160792093Y-91981649D01*
X160792086Y-91981645D01*
X160657379Y-91931403D01*
X160657372Y-91931401D01*
X160597844Y-91925000D01*
X159900000Y-91925000D01*
X159900000Y-92950810D01*
X159847453Y-92914984D01*
X159717827Y-92875000D01*
X159616276Y-92875000D01*
X159515862Y-92890135D01*
X159400000Y-92945931D01*
X159400000Y-91925000D01*
X158702155Y-91925000D01*
X158642627Y-91931401D01*
X158642620Y-91931403D01*
X158507913Y-91981645D01*
X158507906Y-91981649D01*
X158392812Y-92067809D01*
X158392809Y-92067812D01*
X158306649Y-92182906D01*
X158306646Y-92182911D01*
X158277924Y-92259920D01*
X158236052Y-92315853D01*
X158170588Y-92340270D01*
X158102315Y-92325418D01*
X158070514Y-92300571D01*
X158061784Y-92291087D01*
X158061779Y-92291083D01*
X158061777Y-92291081D01*
X157878634Y-92148535D01*
X157878628Y-92148531D01*
X157674504Y-92038064D01*
X157674495Y-92038061D01*
X157454984Y-91962702D01*
X157267404Y-91931401D01*
X157226049Y-91924500D01*
X156993951Y-91924500D01*
X156952596Y-91931401D01*
X156765015Y-91962702D01*
X156545504Y-92038061D01*
X156545495Y-92038064D01*
X156341371Y-92148531D01*
X156341365Y-92148535D01*
X156158222Y-92291081D01*
X156158219Y-92291084D01*
X156158216Y-92291086D01*
X156158216Y-92291087D01*
X156133791Y-92317620D01*
X156001016Y-92461852D01*
X155874075Y-92656151D01*
X155780842Y-92868699D01*
X155723866Y-93093691D01*
X155723864Y-93093702D01*
X155704700Y-93324993D01*
X155704700Y-93325006D01*
X153444533Y-93325006D01*
X153435635Y-93223308D01*
X153376739Y-93003504D01*
X153280568Y-92797266D01*
X153150047Y-92610861D01*
X153150045Y-92610858D01*
X152989141Y-92449954D01*
X152802734Y-92319432D01*
X152802732Y-92319431D01*
X152596497Y-92223261D01*
X152596488Y-92223258D01*
X152376697Y-92164366D01*
X152376693Y-92164365D01*
X152376692Y-92164365D01*
X152376691Y-92164364D01*
X152376686Y-92164364D01*
X152150002Y-92144532D01*
X152149998Y-92144532D01*
X151923313Y-92164364D01*
X151923302Y-92164366D01*
X151703511Y-92223258D01*
X151703502Y-92223261D01*
X151497267Y-92319431D01*
X151497265Y-92319432D01*
X151310858Y-92449954D01*
X151149954Y-92610858D01*
X151019432Y-92797265D01*
X151019431Y-92797267D01*
X150923261Y-93003502D01*
X150923258Y-93003511D01*
X150864366Y-93223302D01*
X150864364Y-93223313D01*
X150844532Y-93449998D01*
X150844532Y-93450001D01*
X149955468Y-93450001D01*
X149955468Y-93450000D01*
X149953391Y-93426265D01*
X149947982Y-93364431D01*
X149935635Y-93223308D01*
X149876739Y-93003504D01*
X149780568Y-92797266D01*
X149650047Y-92610861D01*
X149650045Y-92610858D01*
X149489141Y-92449954D01*
X149302734Y-92319432D01*
X149302732Y-92319431D01*
X149096497Y-92223261D01*
X149096488Y-92223258D01*
X148876697Y-92164366D01*
X148876693Y-92164365D01*
X148876692Y-92164365D01*
X148876691Y-92164364D01*
X148876686Y-92164364D01*
X148650002Y-92144532D01*
X148649998Y-92144532D01*
X148423313Y-92164364D01*
X148423302Y-92164366D01*
X148203511Y-92223258D01*
X148203502Y-92223261D01*
X147997267Y-92319431D01*
X147997265Y-92319432D01*
X147810858Y-92449954D01*
X147649954Y-92610858D01*
X147519432Y-92797265D01*
X147519431Y-92797267D01*
X147423261Y-93003502D01*
X147423258Y-93003511D01*
X147364366Y-93223302D01*
X147364364Y-93223313D01*
X147344532Y-93449998D01*
X147344532Y-93450001D01*
X144894941Y-93450001D01*
X144772734Y-93364432D01*
X144772728Y-93364429D01*
X144714725Y-93337382D01*
X144662285Y-93291210D01*
X144643133Y-93224017D01*
X144663348Y-93157135D01*
X144714725Y-93112618D01*
X144772734Y-93085568D01*
X144959139Y-92955047D01*
X145120047Y-92794139D01*
X145250568Y-92607734D01*
X145346739Y-92401496D01*
X145405635Y-92181692D01*
X145425468Y-91955000D01*
X145405635Y-91728308D01*
X145346739Y-91508504D01*
X145250568Y-91302266D01*
X145120047Y-91115861D01*
X145120045Y-91115858D01*
X144959141Y-90954954D01*
X144772734Y-90824432D01*
X144772728Y-90824429D01*
X144714725Y-90797382D01*
X144662285Y-90751210D01*
X144643133Y-90684017D01*
X144663348Y-90617135D01*
X144714725Y-90572618D01*
X144772734Y-90545568D01*
X144959139Y-90415047D01*
X145120047Y-90254139D01*
X145250568Y-90067734D01*
X145346739Y-89861496D01*
X145405635Y-89641692D01*
X145425468Y-89415000D01*
X145405635Y-89188308D01*
X145346739Y-88968504D01*
X145250568Y-88762266D01*
X145120047Y-88575861D01*
X145120045Y-88575858D01*
X144959141Y-88414954D01*
X144772734Y-88284432D01*
X144772728Y-88284429D01*
X144714725Y-88257382D01*
X144662285Y-88211210D01*
X144643133Y-88144017D01*
X144663348Y-88077135D01*
X144714725Y-88032618D01*
X144772734Y-88005568D01*
X144959139Y-87875047D01*
X145120047Y-87714139D01*
X145250568Y-87527734D01*
X145346739Y-87321496D01*
X145405635Y-87101692D01*
X145425468Y-86875000D01*
X145405635Y-86648308D01*
X145346739Y-86428504D01*
X145250568Y-86222266D01*
X145120047Y-86035861D01*
X145120045Y-86035858D01*
X144959141Y-85874954D01*
X144772734Y-85744432D01*
X144772732Y-85744431D01*
X144566497Y-85648261D01*
X144566488Y-85648258D01*
X144346697Y-85589366D01*
X144346693Y-85589365D01*
X144346692Y-85589365D01*
X144346691Y-85589364D01*
X144346686Y-85589364D01*
X144120002Y-85569532D01*
X144119998Y-85569532D01*
X143893313Y-85589364D01*
X143893302Y-85589366D01*
X143673511Y-85648258D01*
X143673502Y-85648261D01*
X143467267Y-85744431D01*
X143467265Y-85744432D01*
X143280858Y-85874954D01*
X143119954Y-86035858D01*
X142989432Y-86222265D01*
X142989431Y-86222267D01*
X142893261Y-86428502D01*
X142893258Y-86428511D01*
X142834366Y-86648302D01*
X142834364Y-86648313D01*
X142814532Y-86874998D01*
X142814532Y-86875001D01*
X142834364Y-87101686D01*
X142834366Y-87101697D01*
X142893258Y-87321488D01*
X142893261Y-87321497D01*
X142989431Y-87527732D01*
X142989432Y-87527734D01*
X143119954Y-87714141D01*
X143280858Y-87875045D01*
X143280861Y-87875047D01*
X143467266Y-88005568D01*
X143525275Y-88032618D01*
X143577714Y-88078791D01*
X143596866Y-88145984D01*
X143576650Y-88212865D01*
X143525275Y-88257382D01*
X143467267Y-88284431D01*
X143467265Y-88284432D01*
X143280858Y-88414954D01*
X143119954Y-88575858D01*
X142989432Y-88762265D01*
X142989431Y-88762267D01*
X142893261Y-88968502D01*
X142893258Y-88968511D01*
X142834366Y-89188302D01*
X142834364Y-89188313D01*
X142814532Y-89414998D01*
X142814532Y-89415001D01*
X142834364Y-89641686D01*
X142834366Y-89641697D01*
X142893258Y-89861488D01*
X142893261Y-89861497D01*
X142989431Y-90067732D01*
X142989432Y-90067734D01*
X143119954Y-90254141D01*
X143280858Y-90415045D01*
X143280861Y-90415047D01*
X143467266Y-90545568D01*
X143525275Y-90572618D01*
X143577714Y-90618791D01*
X143596866Y-90685984D01*
X143576650Y-90752865D01*
X143525275Y-90797382D01*
X143467267Y-90824431D01*
X143467265Y-90824432D01*
X143280858Y-90954954D01*
X143119954Y-91115858D01*
X142989432Y-91302265D01*
X142989431Y-91302267D01*
X142893261Y-91508502D01*
X142893258Y-91508511D01*
X142834366Y-91728302D01*
X142834364Y-91728313D01*
X142814532Y-91954998D01*
X142814532Y-91955001D01*
X142834364Y-92181686D01*
X142834366Y-92181697D01*
X142893258Y-92401488D01*
X142893261Y-92401497D01*
X142989431Y-92607732D01*
X142989432Y-92607734D01*
X143119954Y-92794141D01*
X143280858Y-92955045D01*
X143280861Y-92955047D01*
X143467266Y-93085568D01*
X143525275Y-93112618D01*
X143577714Y-93158791D01*
X143596866Y-93225984D01*
X143576650Y-93292865D01*
X143525275Y-93337382D01*
X143467267Y-93364431D01*
X143467265Y-93364432D01*
X143280858Y-93494954D01*
X143119954Y-93655858D01*
X142989432Y-93842265D01*
X142989431Y-93842267D01*
X142893261Y-94048502D01*
X142893258Y-94048511D01*
X142834366Y-94268302D01*
X142834364Y-94268313D01*
X142814532Y-94494998D01*
X142814532Y-94495001D01*
X142834364Y-94721686D01*
X142834366Y-94721697D01*
X142893258Y-94941488D01*
X142893261Y-94941497D01*
X142989431Y-95147732D01*
X142989432Y-95147734D01*
X143119954Y-95334141D01*
X143280858Y-95495045D01*
X143280861Y-95495047D01*
X143467266Y-95625568D01*
X143525275Y-95652618D01*
X143577714Y-95698791D01*
X143596866Y-95765984D01*
X143576650Y-95832865D01*
X143525275Y-95877382D01*
X143467267Y-95904431D01*
X143467265Y-95904432D01*
X143280858Y-96034954D01*
X143119954Y-96195858D01*
X142989432Y-96382265D01*
X142989431Y-96382267D01*
X142893261Y-96588502D01*
X142893258Y-96588511D01*
X142834366Y-96808302D01*
X142834364Y-96808313D01*
X142814532Y-97034998D01*
X142814532Y-97035001D01*
X142834364Y-97261686D01*
X142834366Y-97261697D01*
X142893258Y-97481488D01*
X142893261Y-97481497D01*
X142989431Y-97687732D01*
X142989432Y-97687734D01*
X143119954Y-97874141D01*
X143280858Y-98035045D01*
X143280861Y-98035047D01*
X143467266Y-98165568D01*
X143525275Y-98192618D01*
X143577714Y-98238791D01*
X143596866Y-98305984D01*
X143576650Y-98372865D01*
X143525275Y-98417382D01*
X143467267Y-98444431D01*
X143467265Y-98444432D01*
X143280858Y-98574954D01*
X143119954Y-98735858D01*
X142989432Y-98922265D01*
X142989431Y-98922267D01*
X142893261Y-99128502D01*
X142893258Y-99128511D01*
X142834366Y-99348302D01*
X142834364Y-99348313D01*
X142814532Y-99574998D01*
X142814532Y-99575001D01*
X142834364Y-99801686D01*
X142834366Y-99801697D01*
X142893258Y-100021488D01*
X142893261Y-100021497D01*
X142989431Y-100227732D01*
X142989432Y-100227734D01*
X143119954Y-100414141D01*
X143280858Y-100575045D01*
X143280861Y-100575047D01*
X143467266Y-100705568D01*
X143525275Y-100732618D01*
X143577714Y-100778791D01*
X143596866Y-100845984D01*
X143576650Y-100912865D01*
X143525275Y-100957382D01*
X143467267Y-100984431D01*
X143467265Y-100984432D01*
X143280858Y-101114954D01*
X143119954Y-101275858D01*
X142989432Y-101462265D01*
X142989431Y-101462267D01*
X142893261Y-101668502D01*
X142893258Y-101668511D01*
X142834366Y-101888302D01*
X142834364Y-101888313D01*
X142814532Y-102114998D01*
X142814532Y-102115001D01*
X136904986Y-102115001D01*
X136904986Y-102115000D01*
X136885165Y-101989852D01*
X136827641Y-101876955D01*
X136815686Y-101865000D01*
X137778872Y-101865000D01*
X137778872Y-101864999D01*
X137726269Y-101668682D01*
X137726265Y-101668673D01*
X137630134Y-101462517D01*
X137499657Y-101276179D01*
X137338820Y-101115342D01*
X137152482Y-100984865D01*
X137094133Y-100957657D01*
X137041694Y-100911484D01*
X137022542Y-100844291D01*
X137042758Y-100777410D01*
X137094129Y-100732895D01*
X137152734Y-100705568D01*
X137339139Y-100575047D01*
X137500047Y-100414139D01*
X137630568Y-100227734D01*
X137726739Y-100021496D01*
X137785635Y-99801692D01*
X137805468Y-99575000D01*
X137785635Y-99348308D01*
X137726739Y-99128504D01*
X137630568Y-98922266D01*
X137500047Y-98735861D01*
X137500045Y-98735858D01*
X137339141Y-98574954D01*
X137152734Y-98444432D01*
X137152728Y-98444429D01*
X137094725Y-98417382D01*
X137042285Y-98371210D01*
X137023133Y-98304017D01*
X137043348Y-98237135D01*
X137094725Y-98192618D01*
X137152734Y-98165568D01*
X137339139Y-98035047D01*
X137500047Y-97874139D01*
X137630568Y-97687734D01*
X137726739Y-97481496D01*
X137785635Y-97261692D01*
X137805468Y-97035000D01*
X137785635Y-96808308D01*
X137726739Y-96588504D01*
X137630568Y-96382266D01*
X137500047Y-96195861D01*
X137500045Y-96195858D01*
X137339141Y-96034954D01*
X137152734Y-95904432D01*
X137152728Y-95904429D01*
X137094725Y-95877382D01*
X137042285Y-95831210D01*
X137023133Y-95764017D01*
X137043348Y-95697135D01*
X137094725Y-95652618D01*
X137152734Y-95625568D01*
X137339139Y-95495047D01*
X137500047Y-95334139D01*
X137630568Y-95147734D01*
X137726739Y-94941496D01*
X137785635Y-94721692D01*
X137804902Y-94501468D01*
X137805468Y-94495001D01*
X137805468Y-94494998D01*
X137793225Y-94355060D01*
X137785635Y-94268308D01*
X137726739Y-94048504D01*
X137630568Y-93842266D01*
X137500047Y-93655861D01*
X137500045Y-93655858D01*
X137339141Y-93494954D01*
X137152734Y-93364432D01*
X137152728Y-93364429D01*
X137094725Y-93337382D01*
X137042285Y-93291210D01*
X137023133Y-93224017D01*
X137043348Y-93157135D01*
X137094725Y-93112618D01*
X137152734Y-93085568D01*
X137339139Y-92955047D01*
X137500047Y-92794139D01*
X137630568Y-92607734D01*
X137726739Y-92401496D01*
X137785635Y-92181692D01*
X137805468Y-91955000D01*
X137785635Y-91728308D01*
X137726739Y-91508504D01*
X137630568Y-91302266D01*
X137500047Y-91115861D01*
X137500045Y-91115858D01*
X137339141Y-90954954D01*
X137152734Y-90824432D01*
X137152728Y-90824429D01*
X137094725Y-90797382D01*
X137042285Y-90751210D01*
X137023133Y-90684017D01*
X137043348Y-90617135D01*
X137094725Y-90572618D01*
X137152734Y-90545568D01*
X137339139Y-90415047D01*
X137500047Y-90254139D01*
X137630568Y-90067734D01*
X137726739Y-89861496D01*
X137785635Y-89641692D01*
X137805468Y-89415000D01*
X137785635Y-89188308D01*
X137726739Y-88968504D01*
X137630568Y-88762266D01*
X137500047Y-88575861D01*
X137500045Y-88575858D01*
X137339143Y-88414956D01*
X137314536Y-88397726D01*
X137270912Y-88343149D01*
X137263719Y-88273650D01*
X137295241Y-88211296D01*
X137355471Y-88175882D01*
X137372404Y-88172861D01*
X137407483Y-88169091D01*
X137542331Y-88118796D01*
X137657546Y-88032546D01*
X137743796Y-87917331D01*
X137794091Y-87782483D01*
X137800500Y-87722873D01*
X137800499Y-86027128D01*
X137794091Y-85967517D01*
X137759567Y-85874954D01*
X137743797Y-85832671D01*
X137743793Y-85832664D01*
X137657547Y-85717455D01*
X137657544Y-85717452D01*
X137542335Y-85631206D01*
X137542328Y-85631202D01*
X137407482Y-85580908D01*
X137407483Y-85580908D01*
X137347883Y-85574501D01*
X137347881Y-85574500D01*
X137347873Y-85574500D01*
X137347864Y-85574500D01*
X135652129Y-85574500D01*
X135652123Y-85574501D01*
X135592516Y-85580908D01*
X135457671Y-85631202D01*
X135457664Y-85631206D01*
X135342455Y-85717452D01*
X135342452Y-85717455D01*
X135256206Y-85832664D01*
X135256202Y-85832671D01*
X135205908Y-85967517D01*
X135199501Y-86027116D01*
X135199501Y-86027123D01*
X135199500Y-86027135D01*
X135199500Y-87722870D01*
X135199501Y-87722876D01*
X135205908Y-87782483D01*
X135256202Y-87917328D01*
X135256206Y-87917335D01*
X135342452Y-88032544D01*
X135342455Y-88032547D01*
X135457664Y-88118793D01*
X135457671Y-88118797D01*
X135502618Y-88135561D01*
X135592517Y-88169091D01*
X135627596Y-88172862D01*
X135692144Y-88199599D01*
X135731993Y-88256991D01*
X135734488Y-88326816D01*
X135698836Y-88386905D01*
X135685464Y-88397725D01*
X135660858Y-88414954D01*
X135499954Y-88575858D01*
X135369432Y-88762265D01*
X135369431Y-88762267D01*
X135273261Y-88968502D01*
X135273258Y-88968511D01*
X135214366Y-89188302D01*
X135214364Y-89188313D01*
X135194532Y-89414998D01*
X135194532Y-89415001D01*
X135214364Y-89641686D01*
X135214366Y-89641697D01*
X135273258Y-89861488D01*
X135273261Y-89861497D01*
X135369431Y-90067732D01*
X135369432Y-90067734D01*
X135499954Y-90254141D01*
X135660858Y-90415045D01*
X135660861Y-90415047D01*
X135847266Y-90545568D01*
X135905275Y-90572618D01*
X135957714Y-90618791D01*
X135976866Y-90685984D01*
X135956650Y-90752865D01*
X135905275Y-90797382D01*
X135847267Y-90824431D01*
X135847265Y-90824432D01*
X135660858Y-90954954D01*
X135499954Y-91115858D01*
X135369432Y-91302265D01*
X135369431Y-91302267D01*
X135273261Y-91508502D01*
X135273258Y-91508511D01*
X135214366Y-91728302D01*
X135214364Y-91728313D01*
X135194532Y-91954998D01*
X135194532Y-91955001D01*
X135214364Y-92181686D01*
X135214366Y-92181697D01*
X135273258Y-92401488D01*
X135273261Y-92401497D01*
X135369431Y-92607732D01*
X135369432Y-92607734D01*
X135499954Y-92794141D01*
X135660858Y-92955045D01*
X135660861Y-92955047D01*
X135847266Y-93085568D01*
X135905275Y-93112618D01*
X135957714Y-93158791D01*
X135976866Y-93225984D01*
X135956650Y-93292865D01*
X135905275Y-93337382D01*
X135847267Y-93364431D01*
X135847265Y-93364432D01*
X135660858Y-93494954D01*
X135499954Y-93655858D01*
X135369432Y-93842265D01*
X135369431Y-93842267D01*
X135273261Y-94048502D01*
X135273258Y-94048511D01*
X135214366Y-94268302D01*
X135214364Y-94268313D01*
X135194532Y-94494998D01*
X135194532Y-94495001D01*
X135214364Y-94721686D01*
X135214366Y-94721697D01*
X135273258Y-94941488D01*
X135273261Y-94941497D01*
X135369431Y-95147732D01*
X135369432Y-95147734D01*
X135499954Y-95334141D01*
X135660858Y-95495045D01*
X135660861Y-95495047D01*
X135847266Y-95625568D01*
X135905275Y-95652618D01*
X135957714Y-95698791D01*
X135976866Y-95765984D01*
X135956650Y-95832865D01*
X135905275Y-95877382D01*
X135847267Y-95904431D01*
X135847265Y-95904432D01*
X135660858Y-96034954D01*
X135499954Y-96195858D01*
X135369432Y-96382265D01*
X135369431Y-96382267D01*
X135273261Y-96588502D01*
X135273258Y-96588511D01*
X135214366Y-96808302D01*
X135214364Y-96808313D01*
X135194532Y-97034998D01*
X135194532Y-97035001D01*
X135214364Y-97261686D01*
X135214366Y-97261697D01*
X135273258Y-97481488D01*
X135273261Y-97481497D01*
X135369431Y-97687732D01*
X135369432Y-97687734D01*
X135499954Y-97874141D01*
X135660858Y-98035045D01*
X135660861Y-98035047D01*
X135847266Y-98165568D01*
X135905275Y-98192618D01*
X135957714Y-98238791D01*
X135976866Y-98305984D01*
X135956650Y-98372865D01*
X135905275Y-98417382D01*
X135847267Y-98444431D01*
X135847265Y-98444432D01*
X135660858Y-98574954D01*
X135499954Y-98735858D01*
X135369432Y-98922265D01*
X135369431Y-98922267D01*
X135273261Y-99128502D01*
X135273258Y-99128511D01*
X135214366Y-99348302D01*
X135214364Y-99348313D01*
X135194532Y-99574998D01*
X135194532Y-99575001D01*
X114614030Y-99575001D01*
X114637178Y-91450001D01*
X118844532Y-91450001D01*
X118864364Y-91676686D01*
X118864366Y-91676697D01*
X118923258Y-91896488D01*
X118923261Y-91896497D01*
X119019431Y-92102732D01*
X119019432Y-92102734D01*
X119149954Y-92289141D01*
X119310858Y-92450045D01*
X119310861Y-92450047D01*
X119497266Y-92580568D01*
X119703504Y-92676739D01*
X119923308Y-92735635D01*
X120085230Y-92749801D01*
X120149998Y-92755468D01*
X120150000Y-92755468D01*
X120150002Y-92755468D01*
X120206673Y-92750509D01*
X120376692Y-92735635D01*
X120596496Y-92676739D01*
X120802734Y-92580568D01*
X120989139Y-92450047D01*
X121150047Y-92289139D01*
X121280568Y-92102734D01*
X121376739Y-91896496D01*
X121435635Y-91676692D01*
X121455468Y-91450000D01*
X121435635Y-91223308D01*
X121389198Y-91050001D01*
X126744532Y-91050001D01*
X126764364Y-91276686D01*
X126764366Y-91276697D01*
X126823258Y-91496488D01*
X126823261Y-91496497D01*
X126919431Y-91702732D01*
X126919432Y-91702734D01*
X127049954Y-91889141D01*
X127210858Y-92050045D01*
X127210861Y-92050047D01*
X127397266Y-92180568D01*
X127603504Y-92276739D01*
X127823308Y-92335635D01*
X127985230Y-92349801D01*
X128049998Y-92355468D01*
X128050000Y-92355468D01*
X128050002Y-92355468D01*
X128106673Y-92350509D01*
X128276692Y-92335635D01*
X128496496Y-92276739D01*
X128702734Y-92180568D01*
X128889139Y-92050047D01*
X129050047Y-91889139D01*
X129180568Y-91702734D01*
X129276739Y-91496496D01*
X129335635Y-91276692D01*
X129355468Y-91050000D01*
X129335635Y-90823308D01*
X129278710Y-90610861D01*
X129276741Y-90603511D01*
X129276738Y-90603502D01*
X129180568Y-90397266D01*
X129080350Y-90254139D01*
X129050045Y-90210858D01*
X128889141Y-90049954D01*
X128702734Y-89919432D01*
X128702732Y-89919431D01*
X128496497Y-89823261D01*
X128496488Y-89823258D01*
X128276697Y-89764366D01*
X128276693Y-89764365D01*
X128276692Y-89764365D01*
X128276691Y-89764364D01*
X128276686Y-89764364D01*
X128050002Y-89744532D01*
X128049998Y-89744532D01*
X127823313Y-89764364D01*
X127823302Y-89764366D01*
X127603511Y-89823258D01*
X127603502Y-89823261D01*
X127397267Y-89919431D01*
X127397265Y-89919432D01*
X127210858Y-90049954D01*
X127049954Y-90210858D01*
X126919432Y-90397265D01*
X126919431Y-90397267D01*
X126823261Y-90603502D01*
X126823258Y-90603511D01*
X126764366Y-90823302D01*
X126764364Y-90823313D01*
X126744532Y-91049998D01*
X126744532Y-91050001D01*
X121389198Y-91050001D01*
X121376739Y-91003504D01*
X121280568Y-90797266D01*
X121150047Y-90610861D01*
X121150045Y-90610858D01*
X120989141Y-90449954D01*
X120802734Y-90319432D01*
X120802732Y-90319431D01*
X120596497Y-90223261D01*
X120596488Y-90223258D01*
X120376697Y-90164366D01*
X120376693Y-90164365D01*
X120376692Y-90164365D01*
X120376691Y-90164364D01*
X120376686Y-90164364D01*
X120150002Y-90144532D01*
X120149998Y-90144532D01*
X119923313Y-90164364D01*
X119923302Y-90164366D01*
X119703511Y-90223258D01*
X119703502Y-90223261D01*
X119497267Y-90319431D01*
X119497265Y-90319432D01*
X119310858Y-90449954D01*
X119149954Y-90610858D01*
X119019432Y-90797265D01*
X119019431Y-90797267D01*
X118923261Y-91003502D01*
X118923258Y-91003511D01*
X118864366Y-91223302D01*
X118864364Y-91223313D01*
X118844532Y-91449998D01*
X118844532Y-91450001D01*
X114637178Y-91450001D01*
X114647150Y-87950001D01*
X118844532Y-87950001D01*
X118864364Y-88176686D01*
X118864366Y-88176697D01*
X118923258Y-88396488D01*
X118923261Y-88396497D01*
X119019431Y-88602732D01*
X119019432Y-88602734D01*
X119149954Y-88789141D01*
X119310858Y-88950045D01*
X119310861Y-88950047D01*
X119497266Y-89080568D01*
X119703504Y-89176739D01*
X119923308Y-89235635D01*
X120085230Y-89249801D01*
X120149998Y-89255468D01*
X120150000Y-89255468D01*
X120150002Y-89255468D01*
X120206673Y-89250509D01*
X120376692Y-89235635D01*
X120596496Y-89176739D01*
X120802734Y-89080568D01*
X120989139Y-88950047D01*
X121150047Y-88789139D01*
X121280568Y-88602734D01*
X121376739Y-88396496D01*
X121435635Y-88176692D01*
X121455468Y-87950000D01*
X121435635Y-87723308D01*
X121389198Y-87550001D01*
X126744532Y-87550001D01*
X126764364Y-87776686D01*
X126764366Y-87776697D01*
X126823258Y-87996488D01*
X126823261Y-87996497D01*
X126919431Y-88202732D01*
X126919432Y-88202734D01*
X127049954Y-88389141D01*
X127210858Y-88550045D01*
X127210861Y-88550047D01*
X127397266Y-88680568D01*
X127603504Y-88776739D01*
X127823308Y-88835635D01*
X127985230Y-88849801D01*
X128049998Y-88855468D01*
X128050000Y-88855468D01*
X128050002Y-88855468D01*
X128106673Y-88850509D01*
X128276692Y-88835635D01*
X128496496Y-88776739D01*
X128702734Y-88680568D01*
X128889139Y-88550047D01*
X129050047Y-88389139D01*
X129180568Y-88202734D01*
X129276739Y-87996496D01*
X129335635Y-87776692D01*
X129355468Y-87550000D01*
X129335635Y-87323308D01*
X129278710Y-87110861D01*
X129276741Y-87103511D01*
X129276738Y-87103502D01*
X129205137Y-86949954D01*
X129180568Y-86897266D01*
X129082839Y-86757693D01*
X129050045Y-86710858D01*
X128889141Y-86549954D01*
X128702734Y-86419432D01*
X128702732Y-86419431D01*
X128496497Y-86323261D01*
X128496488Y-86323258D01*
X128276697Y-86264366D01*
X128276693Y-86264365D01*
X128276692Y-86264365D01*
X128276691Y-86264364D01*
X128276686Y-86264364D01*
X128050002Y-86244532D01*
X128049998Y-86244532D01*
X127823313Y-86264364D01*
X127823302Y-86264366D01*
X127603511Y-86323258D01*
X127603502Y-86323261D01*
X127397267Y-86419431D01*
X127397265Y-86419432D01*
X127210858Y-86549954D01*
X127049954Y-86710858D01*
X126919432Y-86897265D01*
X126919431Y-86897267D01*
X126823261Y-87103502D01*
X126823258Y-87103511D01*
X126764366Y-87323302D01*
X126764364Y-87323313D01*
X126744532Y-87549998D01*
X126744532Y-87550001D01*
X121389198Y-87550001D01*
X121376739Y-87503504D01*
X121280568Y-87297266D01*
X121150047Y-87110861D01*
X121150045Y-87110858D01*
X120989141Y-86949954D01*
X120802734Y-86819432D01*
X120802732Y-86819431D01*
X120596497Y-86723261D01*
X120596488Y-86723258D01*
X120376697Y-86664366D01*
X120376693Y-86664365D01*
X120376692Y-86664365D01*
X120376691Y-86664364D01*
X120376686Y-86664364D01*
X120150002Y-86644532D01*
X120149998Y-86644532D01*
X119923313Y-86664364D01*
X119923302Y-86664366D01*
X119703511Y-86723258D01*
X119703502Y-86723261D01*
X119497267Y-86819431D01*
X119497265Y-86819432D01*
X119310858Y-86949954D01*
X119149954Y-87110858D01*
X119019432Y-87297265D01*
X119019431Y-87297267D01*
X118923261Y-87503502D01*
X118923258Y-87503511D01*
X118864366Y-87723302D01*
X118864364Y-87723313D01*
X118844532Y-87949998D01*
X118844532Y-87950001D01*
X114647150Y-87950001D01*
X114662934Y-82410000D01*
X119340554Y-82410000D01*
X119360295Y-82623047D01*
X119360296Y-82623050D01*
X119418846Y-82828835D01*
X119418849Y-82828841D01*
X119433737Y-82858740D01*
X119514219Y-83020370D01*
X119643159Y-83191114D01*
X119801278Y-83335258D01*
X119801283Y-83335261D01*
X119801286Y-83335263D01*
X119983186Y-83447891D01*
X119983187Y-83447891D01*
X119983190Y-83447893D01*
X120182703Y-83525185D01*
X120393020Y-83564500D01*
X120393022Y-83564500D01*
X120606978Y-83564500D01*
X120606980Y-83564500D01*
X120817297Y-83525185D01*
X121016810Y-83447893D01*
X121198722Y-83335258D01*
X121356841Y-83191114D01*
X121485781Y-83020370D01*
X121581151Y-82828840D01*
X121581151Y-82828837D01*
X121581153Y-82828835D01*
X121632322Y-82648993D01*
X121639704Y-82623048D01*
X121659446Y-82410000D01*
X126940554Y-82410000D01*
X126960295Y-82623047D01*
X126960296Y-82623050D01*
X127018846Y-82828835D01*
X127018849Y-82828841D01*
X127033737Y-82858740D01*
X127114219Y-83020370D01*
X127243159Y-83191114D01*
X127401278Y-83335258D01*
X127401283Y-83335261D01*
X127401286Y-83335263D01*
X127583186Y-83447891D01*
X127583187Y-83447891D01*
X127583190Y-83447893D01*
X127782703Y-83525185D01*
X127993020Y-83564500D01*
X127993022Y-83564500D01*
X128206978Y-83564500D01*
X128206980Y-83564500D01*
X128417297Y-83525185D01*
X128616810Y-83447893D01*
X128798722Y-83335258D01*
X128956841Y-83191114D01*
X129085781Y-83020370D01*
X129181151Y-82828840D01*
X129181151Y-82828837D01*
X129181153Y-82828835D01*
X129232322Y-82648993D01*
X129239704Y-82623048D01*
X129259446Y-82410000D01*
X129239704Y-82196952D01*
X129205619Y-82077155D01*
X129181153Y-81991164D01*
X129181150Y-81991158D01*
X129165595Y-81959920D01*
X129085781Y-81799630D01*
X128956841Y-81628886D01*
X128798722Y-81484742D01*
X128798716Y-81484738D01*
X128798713Y-81484736D01*
X128616813Y-81372108D01*
X128616807Y-81372106D01*
X128417297Y-81294815D01*
X128206980Y-81255500D01*
X127993020Y-81255500D01*
X127782703Y-81294815D01*
X127656533Y-81343693D01*
X127583192Y-81372106D01*
X127583186Y-81372108D01*
X127401286Y-81484736D01*
X127401283Y-81484738D01*
X127401279Y-81484740D01*
X127401278Y-81484742D01*
X127249333Y-81623258D01*
X127243158Y-81628887D01*
X127114219Y-81799629D01*
X127018849Y-81991158D01*
X127018846Y-81991164D01*
X126960296Y-82196949D01*
X126960295Y-82196952D01*
X126940554Y-82409999D01*
X126940554Y-82410000D01*
X121659446Y-82410000D01*
X121639704Y-82196952D01*
X121605619Y-82077155D01*
X121581153Y-81991164D01*
X121581150Y-81991158D01*
X121565595Y-81959920D01*
X121485781Y-81799630D01*
X121356841Y-81628886D01*
X121198722Y-81484742D01*
X121198716Y-81484738D01*
X121198713Y-81484736D01*
X121016813Y-81372108D01*
X121016807Y-81372106D01*
X120817297Y-81294815D01*
X120606980Y-81255500D01*
X120393020Y-81255500D01*
X120182703Y-81294815D01*
X120056533Y-81343693D01*
X119983192Y-81372106D01*
X119983186Y-81372108D01*
X119801286Y-81484736D01*
X119801283Y-81484738D01*
X119801279Y-81484740D01*
X119801278Y-81484742D01*
X119649333Y-81623258D01*
X119643158Y-81628887D01*
X119514219Y-81799629D01*
X119418849Y-81991158D01*
X119418846Y-81991164D01*
X119360296Y-82196949D01*
X119360295Y-82196952D01*
X119340554Y-82409999D01*
X119340554Y-82410000D01*
X114662934Y-82410000D01*
X114671011Y-79575001D01*
X134894532Y-79575001D01*
X134914364Y-79801686D01*
X134914366Y-79801697D01*
X134973258Y-80021488D01*
X134973261Y-80021497D01*
X135069431Y-80227732D01*
X135069432Y-80227734D01*
X135199954Y-80414141D01*
X135360858Y-80575045D01*
X135360861Y-80575047D01*
X135547266Y-80705568D01*
X135605865Y-80732893D01*
X135658305Y-80779065D01*
X135677457Y-80846258D01*
X135657242Y-80913139D01*
X135605867Y-80957657D01*
X135547515Y-80984867D01*
X135361179Y-81115342D01*
X135200342Y-81276179D01*
X135069865Y-81462517D01*
X134973734Y-81668673D01*
X134973730Y-81668682D01*
X134921127Y-81864999D01*
X134921128Y-81865000D01*
X135884314Y-81865000D01*
X135872359Y-81876955D01*
X135814835Y-81989852D01*
X135795014Y-82115000D01*
X135814835Y-82240148D01*
X135872359Y-82353045D01*
X135884314Y-82365000D01*
X134921128Y-82365000D01*
X134973730Y-82561317D01*
X134973734Y-82561326D01*
X135069865Y-82767482D01*
X135200342Y-82953820D01*
X135361179Y-83114657D01*
X135547517Y-83245134D01*
X135753673Y-83341265D01*
X135753682Y-83341269D01*
X135949999Y-83393872D01*
X135950000Y-83393871D01*
X135950000Y-82430686D01*
X135961955Y-82442641D01*
X136074852Y-82500165D01*
X136168519Y-82515000D01*
X136231481Y-82515000D01*
X136325148Y-82500165D01*
X136438045Y-82442641D01*
X136450000Y-82430686D01*
X136450000Y-83393872D01*
X136646317Y-83341269D01*
X136646326Y-83341265D01*
X136852482Y-83245134D01*
X137038820Y-83114657D01*
X137199657Y-82953820D01*
X137330134Y-82767482D01*
X137426265Y-82561326D01*
X137426269Y-82561317D01*
X137478872Y-82365000D01*
X136515686Y-82365000D01*
X136527641Y-82353045D01*
X136585165Y-82240148D01*
X136604986Y-82115001D01*
X142514532Y-82115001D01*
X142534364Y-82341686D01*
X142534366Y-82341697D01*
X142593258Y-82561488D01*
X142593261Y-82561497D01*
X142689431Y-82767732D01*
X142689432Y-82767734D01*
X142819954Y-82954141D01*
X142980858Y-83115045D01*
X142980861Y-83115047D01*
X143167266Y-83245568D01*
X143373504Y-83341739D01*
X143593308Y-83400635D01*
X143755230Y-83414801D01*
X143819998Y-83420468D01*
X143820000Y-83420468D01*
X143820002Y-83420468D01*
X143876673Y-83415509D01*
X144046692Y-83400635D01*
X144266496Y-83341739D01*
X144472734Y-83245568D01*
X144659139Y-83115047D01*
X144820047Y-82954139D01*
X144892965Y-82850001D01*
X147144532Y-82850001D01*
X147164364Y-83076686D01*
X147164366Y-83076697D01*
X147223258Y-83296488D01*
X147223261Y-83296497D01*
X147319431Y-83502732D01*
X147319432Y-83502734D01*
X147449954Y-83689141D01*
X147610858Y-83850045D01*
X147610861Y-83850047D01*
X147797266Y-83980568D01*
X148003504Y-84076739D01*
X148223308Y-84135635D01*
X148385230Y-84149801D01*
X148449998Y-84155468D01*
X148450000Y-84155468D01*
X148450002Y-84155468D01*
X148506673Y-84150509D01*
X148676692Y-84135635D01*
X148896496Y-84076739D01*
X149102734Y-83980568D01*
X149289139Y-83850047D01*
X149450047Y-83689139D01*
X149580568Y-83502734D01*
X149676739Y-83296496D01*
X149735635Y-83076692D01*
X149755468Y-82850001D01*
X150644532Y-82850001D01*
X150664364Y-83076686D01*
X150664366Y-83076697D01*
X150723258Y-83296488D01*
X150723261Y-83296497D01*
X150819431Y-83502732D01*
X150819432Y-83502734D01*
X150949954Y-83689141D01*
X151110858Y-83850045D01*
X151110861Y-83850047D01*
X151297266Y-83980568D01*
X151503504Y-84076739D01*
X151723308Y-84135635D01*
X151885230Y-84149801D01*
X151949998Y-84155468D01*
X151950000Y-84155468D01*
X151950002Y-84155468D01*
X152006673Y-84150509D01*
X152176692Y-84135635D01*
X152396496Y-84076739D01*
X152602734Y-83980568D01*
X152789139Y-83850047D01*
X152950047Y-83689139D01*
X153080568Y-83502734D01*
X153176739Y-83296496D01*
X153235635Y-83076692D01*
X153240157Y-83025006D01*
X155804700Y-83025006D01*
X155823864Y-83256297D01*
X155823866Y-83256308D01*
X155880842Y-83481300D01*
X155974075Y-83693848D01*
X156101016Y-83888147D01*
X156101019Y-83888151D01*
X156101021Y-83888153D01*
X156258216Y-84058913D01*
X156258219Y-84058915D01*
X156258222Y-84058918D01*
X156441365Y-84201464D01*
X156441371Y-84201468D01*
X156441374Y-84201470D01*
X156645497Y-84311936D01*
X156759487Y-84351068D01*
X156865015Y-84387297D01*
X156865017Y-84387297D01*
X156865019Y-84387298D01*
X157093951Y-84425500D01*
X157093952Y-84425500D01*
X157326048Y-84425500D01*
X157326049Y-84425500D01*
X157554981Y-84387298D01*
X157774503Y-84311936D01*
X157978626Y-84201470D01*
X158161784Y-84058913D01*
X158170511Y-84049432D01*
X158230394Y-84013441D01*
X158300232Y-84015538D01*
X158357850Y-84055060D01*
X158377924Y-84090080D01*
X158406645Y-84167086D01*
X158406649Y-84167093D01*
X158492809Y-84282187D01*
X158492812Y-84282190D01*
X158607906Y-84368350D01*
X158607913Y-84368354D01*
X158742620Y-84418596D01*
X158742627Y-84418598D01*
X158802155Y-84424999D01*
X158802172Y-84425000D01*
X159500000Y-84425000D01*
X159500000Y-83399189D01*
X159552547Y-83435016D01*
X159682173Y-83475000D01*
X159783724Y-83475000D01*
X159884138Y-83459865D01*
X160000000Y-83404068D01*
X160000000Y-84425000D01*
X160697828Y-84425000D01*
X160697844Y-84424999D01*
X160757372Y-84418598D01*
X160757379Y-84418596D01*
X160892086Y-84368354D01*
X160892093Y-84368350D01*
X161007187Y-84282190D01*
X161007190Y-84282187D01*
X161093350Y-84167093D01*
X161093354Y-84167086D01*
X161143596Y-84032379D01*
X161143598Y-84032372D01*
X161149999Y-83972844D01*
X161150000Y-83972827D01*
X161150000Y-83275000D01*
X160125278Y-83275000D01*
X160173625Y-83191260D01*
X160203810Y-83059008D01*
X160193673Y-82923735D01*
X160144113Y-82797459D01*
X160126203Y-82775000D01*
X161150000Y-82775000D01*
X161150000Y-82077172D01*
X161149999Y-82077155D01*
X161143598Y-82017627D01*
X161143596Y-82017620D01*
X161093354Y-81882913D01*
X161093350Y-81882906D01*
X161007190Y-81767812D01*
X161007187Y-81767809D01*
X160892093Y-81681649D01*
X160892086Y-81681645D01*
X160757379Y-81631403D01*
X160757372Y-81631401D01*
X160697844Y-81625000D01*
X160000000Y-81625000D01*
X160000000Y-82650810D01*
X159947453Y-82614984D01*
X159817827Y-82575000D01*
X159716276Y-82575000D01*
X159615862Y-82590135D01*
X159500000Y-82645931D01*
X159500000Y-81625000D01*
X158802155Y-81625000D01*
X158742627Y-81631401D01*
X158742620Y-81631403D01*
X158607913Y-81681645D01*
X158607906Y-81681649D01*
X158492812Y-81767809D01*
X158492809Y-81767812D01*
X158406649Y-81882906D01*
X158406646Y-81882911D01*
X158377924Y-81959920D01*
X158336052Y-82015853D01*
X158270588Y-82040270D01*
X158202315Y-82025418D01*
X158170514Y-82000571D01*
X158161784Y-81991087D01*
X158161779Y-81991083D01*
X158161777Y-81991081D01*
X157978634Y-81848535D01*
X157978628Y-81848531D01*
X157774504Y-81738064D01*
X157774495Y-81738061D01*
X157554984Y-81662702D01*
X157367404Y-81631401D01*
X157326049Y-81624500D01*
X157093951Y-81624500D01*
X157052596Y-81631401D01*
X156865015Y-81662702D01*
X156645504Y-81738061D01*
X156645495Y-81738064D01*
X156441371Y-81848531D01*
X156441365Y-81848535D01*
X156258222Y-81991081D01*
X156258219Y-81991084D01*
X156258216Y-81991086D01*
X156258216Y-81991087D01*
X156233791Y-82017620D01*
X156101016Y-82161852D01*
X155974075Y-82356151D01*
X155880842Y-82568699D01*
X155823866Y-82793691D01*
X155823864Y-82793702D01*
X155804700Y-83024993D01*
X155804700Y-83025006D01*
X153240157Y-83025006D01*
X153255468Y-82850000D01*
X153235635Y-82623308D01*
X153176739Y-82403504D01*
X153080568Y-82197266D01*
X152950047Y-82010861D01*
X152950045Y-82010858D01*
X152789141Y-81849954D01*
X152602734Y-81719432D01*
X152602732Y-81719431D01*
X152396497Y-81623261D01*
X152396488Y-81623258D01*
X152176697Y-81564366D01*
X152176693Y-81564365D01*
X152176692Y-81564365D01*
X152176691Y-81564364D01*
X152176686Y-81564364D01*
X151950002Y-81544532D01*
X151949998Y-81544532D01*
X151723313Y-81564364D01*
X151723302Y-81564366D01*
X151503511Y-81623258D01*
X151503502Y-81623261D01*
X151297267Y-81719431D01*
X151297265Y-81719432D01*
X151110858Y-81849954D01*
X150949954Y-82010858D01*
X150819432Y-82197265D01*
X150819431Y-82197267D01*
X150723261Y-82403502D01*
X150723258Y-82403511D01*
X150664366Y-82623302D01*
X150664364Y-82623313D01*
X150644532Y-82849998D01*
X150644532Y-82850001D01*
X149755468Y-82850001D01*
X149755468Y-82850000D01*
X149735635Y-82623308D01*
X149676739Y-82403504D01*
X149580568Y-82197266D01*
X149450047Y-82010861D01*
X149450045Y-82010858D01*
X149289141Y-81849954D01*
X149102734Y-81719432D01*
X149102732Y-81719431D01*
X148896497Y-81623261D01*
X148896488Y-81623258D01*
X148676697Y-81564366D01*
X148676693Y-81564365D01*
X148676692Y-81564365D01*
X148676691Y-81564364D01*
X148676686Y-81564364D01*
X148450002Y-81544532D01*
X148449998Y-81544532D01*
X148223313Y-81564364D01*
X148223302Y-81564366D01*
X148003511Y-81623258D01*
X148003502Y-81623261D01*
X147797267Y-81719431D01*
X147797265Y-81719432D01*
X147610858Y-81849954D01*
X147449954Y-82010858D01*
X147319432Y-82197265D01*
X147319431Y-82197267D01*
X147223261Y-82403502D01*
X147223258Y-82403511D01*
X147164366Y-82623302D01*
X147164364Y-82623313D01*
X147144532Y-82849998D01*
X147144532Y-82850001D01*
X144892965Y-82850001D01*
X144950568Y-82767734D01*
X145046739Y-82561496D01*
X145105635Y-82341692D01*
X145125468Y-82115000D01*
X145122158Y-82077172D01*
X145116357Y-82010858D01*
X145105635Y-81888308D01*
X145046739Y-81668504D01*
X144950568Y-81462266D01*
X144820047Y-81275861D01*
X144820045Y-81275858D01*
X144659141Y-81114954D01*
X144472734Y-80984432D01*
X144472728Y-80984429D01*
X144414725Y-80957382D01*
X144362285Y-80911210D01*
X144343133Y-80844017D01*
X144363348Y-80777135D01*
X144414725Y-80732618D01*
X144472734Y-80705568D01*
X144659139Y-80575047D01*
X144820047Y-80414139D01*
X144950568Y-80227734D01*
X145046739Y-80021496D01*
X145105635Y-79801692D01*
X145125468Y-79575000D01*
X145105635Y-79348308D01*
X145046739Y-79128504D01*
X144950568Y-78922266D01*
X144820047Y-78735861D01*
X144820045Y-78735858D01*
X144659141Y-78574954D01*
X144472734Y-78444432D01*
X144472728Y-78444429D01*
X144414725Y-78417382D01*
X144362285Y-78371210D01*
X144343133Y-78304017D01*
X144363348Y-78237135D01*
X144414725Y-78192618D01*
X144472734Y-78165568D01*
X144659139Y-78035047D01*
X144820047Y-77874139D01*
X144950568Y-77687734D01*
X145046739Y-77481496D01*
X145105635Y-77261692D01*
X145125468Y-77035000D01*
X145105635Y-76808308D01*
X145046739Y-76588504D01*
X144950568Y-76382266D01*
X144820047Y-76195861D01*
X144820045Y-76195858D01*
X144659141Y-76034954D01*
X144472734Y-75904432D01*
X144472728Y-75904429D01*
X144414725Y-75877382D01*
X144362285Y-75831210D01*
X144343133Y-75764017D01*
X144363348Y-75697135D01*
X144414725Y-75652618D01*
X144472734Y-75625568D01*
X144659139Y-75495047D01*
X144820047Y-75334139D01*
X144950568Y-75147734D01*
X145046739Y-74941496D01*
X145105635Y-74721692D01*
X145125468Y-74495000D01*
X145105635Y-74268308D01*
X145046739Y-74048504D01*
X144950568Y-73842266D01*
X144820047Y-73655861D01*
X144820045Y-73655858D01*
X144659141Y-73494954D01*
X144472734Y-73364432D01*
X144472728Y-73364429D01*
X144414725Y-73337382D01*
X144362285Y-73291210D01*
X144343133Y-73224017D01*
X144363348Y-73157135D01*
X144414725Y-73112618D01*
X144472734Y-73085568D01*
X144659139Y-72955047D01*
X144820047Y-72794139D01*
X144950568Y-72607734D01*
X145046739Y-72401496D01*
X145105635Y-72181692D01*
X145125468Y-71955000D01*
X145105635Y-71728308D01*
X145084653Y-71650001D01*
X147544532Y-71650001D01*
X147564364Y-71876686D01*
X147564366Y-71876697D01*
X147623258Y-72096488D01*
X147623261Y-72096497D01*
X147719431Y-72302732D01*
X147719432Y-72302734D01*
X147849954Y-72489141D01*
X148010858Y-72650045D01*
X148010861Y-72650047D01*
X148197266Y-72780568D01*
X148403504Y-72876739D01*
X148623308Y-72935635D01*
X148785230Y-72949801D01*
X148849998Y-72955468D01*
X148850000Y-72955468D01*
X148850002Y-72955468D01*
X148906673Y-72950509D01*
X149076692Y-72935635D01*
X149296496Y-72876739D01*
X149502734Y-72780568D01*
X149689139Y-72650047D01*
X149850047Y-72489139D01*
X149980568Y-72302734D01*
X150076739Y-72096496D01*
X150135635Y-71876692D01*
X150155468Y-71650001D01*
X151044532Y-71650001D01*
X151064364Y-71876686D01*
X151064366Y-71876697D01*
X151123258Y-72096488D01*
X151123261Y-72096497D01*
X151219431Y-72302732D01*
X151219432Y-72302734D01*
X151349954Y-72489141D01*
X151510858Y-72650045D01*
X151510861Y-72650047D01*
X151697266Y-72780568D01*
X151903504Y-72876739D01*
X152123308Y-72935635D01*
X152285230Y-72949801D01*
X152349998Y-72955468D01*
X152350000Y-72955468D01*
X152350002Y-72955468D01*
X152406673Y-72950509D01*
X152576692Y-72935635D01*
X152796496Y-72876739D01*
X153002734Y-72780568D01*
X153189139Y-72650047D01*
X153350047Y-72489139D01*
X153480568Y-72302734D01*
X153576739Y-72096496D01*
X153595895Y-72025006D01*
X155704700Y-72025006D01*
X155723864Y-72256297D01*
X155723866Y-72256308D01*
X155780842Y-72481300D01*
X155874075Y-72693848D01*
X156001016Y-72888147D01*
X156001019Y-72888151D01*
X156001021Y-72888153D01*
X156158216Y-73058913D01*
X156158219Y-73058915D01*
X156158222Y-73058918D01*
X156341365Y-73201464D01*
X156341371Y-73201468D01*
X156341374Y-73201470D01*
X156545497Y-73311936D01*
X156619619Y-73337382D01*
X156765015Y-73387297D01*
X156765017Y-73387297D01*
X156765019Y-73387298D01*
X156993951Y-73425500D01*
X156993952Y-73425500D01*
X157226048Y-73425500D01*
X157226049Y-73425500D01*
X157454981Y-73387298D01*
X157674503Y-73311936D01*
X157878626Y-73201470D01*
X157903977Y-73181739D01*
X157940129Y-73153600D01*
X158061784Y-73058913D01*
X158070511Y-73049432D01*
X158130394Y-73013441D01*
X158200232Y-73015538D01*
X158257850Y-73055060D01*
X158277924Y-73090080D01*
X158306645Y-73167086D01*
X158306649Y-73167093D01*
X158392809Y-73282187D01*
X158392812Y-73282190D01*
X158507906Y-73368350D01*
X158507913Y-73368354D01*
X158642620Y-73418596D01*
X158642627Y-73418598D01*
X158702155Y-73424999D01*
X158702172Y-73425000D01*
X159400000Y-73425000D01*
X159400000Y-72399189D01*
X159452547Y-72435016D01*
X159582173Y-72475000D01*
X159683724Y-72475000D01*
X159784138Y-72459865D01*
X159900000Y-72404068D01*
X159900000Y-73425000D01*
X160597828Y-73425000D01*
X160597844Y-73424999D01*
X160657372Y-73418598D01*
X160657379Y-73418596D01*
X160792086Y-73368354D01*
X160792093Y-73368350D01*
X160907187Y-73282190D01*
X160907190Y-73282187D01*
X160993350Y-73167093D01*
X160993354Y-73167086D01*
X161043596Y-73032379D01*
X161043598Y-73032372D01*
X161049999Y-72972844D01*
X161050000Y-72972827D01*
X161050000Y-72275000D01*
X160025278Y-72275000D01*
X160073625Y-72191260D01*
X160103810Y-72059008D01*
X160093673Y-71923735D01*
X160044113Y-71797459D01*
X160026203Y-71775000D01*
X161050000Y-71775000D01*
X161050000Y-71077172D01*
X161049999Y-71077155D01*
X161043598Y-71017627D01*
X161043596Y-71017620D01*
X160993354Y-70882913D01*
X160993350Y-70882906D01*
X160907190Y-70767812D01*
X160907187Y-70767809D01*
X160792093Y-70681649D01*
X160792086Y-70681645D01*
X160657379Y-70631403D01*
X160657372Y-70631401D01*
X160597844Y-70625000D01*
X159900000Y-70625000D01*
X159900000Y-71650810D01*
X159847453Y-71614984D01*
X159717827Y-71575000D01*
X159616276Y-71575000D01*
X159515862Y-71590135D01*
X159400000Y-71645931D01*
X159400000Y-70625000D01*
X158702155Y-70625000D01*
X158642627Y-70631401D01*
X158642620Y-70631403D01*
X158507913Y-70681645D01*
X158507906Y-70681649D01*
X158392812Y-70767809D01*
X158392809Y-70767812D01*
X158306649Y-70882906D01*
X158306646Y-70882911D01*
X158277924Y-70959920D01*
X158236052Y-71015853D01*
X158170588Y-71040270D01*
X158102315Y-71025418D01*
X158070514Y-71000571D01*
X158061784Y-70991087D01*
X158061779Y-70991083D01*
X158061777Y-70991081D01*
X157878634Y-70848535D01*
X157878628Y-70848531D01*
X157674504Y-70738064D01*
X157674495Y-70738061D01*
X157454984Y-70662702D01*
X157267404Y-70631401D01*
X157226049Y-70624500D01*
X156993951Y-70624500D01*
X156952596Y-70631401D01*
X156765015Y-70662702D01*
X156545504Y-70738061D01*
X156545495Y-70738064D01*
X156341371Y-70848531D01*
X156341365Y-70848535D01*
X156158222Y-70991081D01*
X156158219Y-70991084D01*
X156158216Y-70991086D01*
X156158216Y-70991087D01*
X156133791Y-71017620D01*
X156001016Y-71161852D01*
X155874075Y-71356151D01*
X155780842Y-71568699D01*
X155723866Y-71793691D01*
X155723864Y-71793702D01*
X155704700Y-72024993D01*
X155704700Y-72025006D01*
X153595895Y-72025006D01*
X153635635Y-71876692D01*
X153655468Y-71650000D01*
X153652404Y-71614984D01*
X153643089Y-71508511D01*
X153635635Y-71423308D01*
X153576739Y-71203504D01*
X153480568Y-70997266D01*
X153376423Y-70848530D01*
X153350045Y-70810858D01*
X153189141Y-70649954D01*
X153002734Y-70519432D01*
X153002732Y-70519431D01*
X152796497Y-70423261D01*
X152796488Y-70423258D01*
X152576697Y-70364366D01*
X152576693Y-70364365D01*
X152576692Y-70364365D01*
X152576691Y-70364364D01*
X152576686Y-70364364D01*
X152350002Y-70344532D01*
X152349998Y-70344532D01*
X152123313Y-70364364D01*
X152123302Y-70364366D01*
X151903511Y-70423258D01*
X151903502Y-70423261D01*
X151697267Y-70519431D01*
X151697265Y-70519432D01*
X151510858Y-70649954D01*
X151349954Y-70810858D01*
X151219432Y-70997265D01*
X151219431Y-70997267D01*
X151123261Y-71203502D01*
X151123258Y-71203511D01*
X151064366Y-71423302D01*
X151064364Y-71423313D01*
X151044532Y-71649998D01*
X151044532Y-71650001D01*
X150155468Y-71650001D01*
X150155468Y-71650000D01*
X150152404Y-71614984D01*
X150143089Y-71508511D01*
X150135635Y-71423308D01*
X150076739Y-71203504D01*
X149980568Y-70997266D01*
X149876423Y-70848530D01*
X149850045Y-70810858D01*
X149689141Y-70649954D01*
X149502734Y-70519432D01*
X149502732Y-70519431D01*
X149296497Y-70423261D01*
X149296488Y-70423258D01*
X149076697Y-70364366D01*
X149076693Y-70364365D01*
X149076692Y-70364365D01*
X149076691Y-70364364D01*
X149076686Y-70364364D01*
X148850002Y-70344532D01*
X148849998Y-70344532D01*
X148623313Y-70364364D01*
X148623302Y-70364366D01*
X148403511Y-70423258D01*
X148403502Y-70423261D01*
X148197267Y-70519431D01*
X148197265Y-70519432D01*
X148010858Y-70649954D01*
X147849954Y-70810858D01*
X147719432Y-70997265D01*
X147719431Y-70997267D01*
X147623261Y-71203502D01*
X147623258Y-71203511D01*
X147564366Y-71423302D01*
X147564364Y-71423313D01*
X147544532Y-71649998D01*
X147544532Y-71650001D01*
X145084653Y-71650001D01*
X145046739Y-71508504D01*
X144950568Y-71302266D01*
X144820047Y-71115861D01*
X144820045Y-71115858D01*
X144659141Y-70954954D01*
X144472734Y-70824432D01*
X144472728Y-70824429D01*
X144414725Y-70797382D01*
X144362285Y-70751210D01*
X144343133Y-70684017D01*
X144363348Y-70617135D01*
X144414725Y-70572618D01*
X144472734Y-70545568D01*
X144659139Y-70415047D01*
X144820047Y-70254139D01*
X144950568Y-70067734D01*
X145046739Y-69861496D01*
X145105635Y-69641692D01*
X145125468Y-69415000D01*
X145124140Y-69399826D01*
X145105635Y-69188313D01*
X145105635Y-69188308D01*
X145046739Y-68968504D01*
X144950568Y-68762266D01*
X144820047Y-68575861D01*
X144820045Y-68575858D01*
X144659141Y-68414954D01*
X144472734Y-68284432D01*
X144472728Y-68284429D01*
X144414725Y-68257382D01*
X144362285Y-68211210D01*
X144343133Y-68144017D01*
X144363348Y-68077135D01*
X144414725Y-68032618D01*
X144472734Y-68005568D01*
X144659139Y-67875047D01*
X144820047Y-67714139D01*
X144950568Y-67527734D01*
X145046739Y-67321496D01*
X145105635Y-67101692D01*
X145125468Y-66875000D01*
X145105635Y-66648308D01*
X145046739Y-66428504D01*
X144950568Y-66222266D01*
X144820047Y-66035861D01*
X144820045Y-66035858D01*
X144659141Y-65874954D01*
X144472734Y-65744432D01*
X144472732Y-65744431D01*
X144266497Y-65648261D01*
X144266488Y-65648258D01*
X144046697Y-65589366D01*
X144046693Y-65589365D01*
X144046692Y-65589365D01*
X144046691Y-65589364D01*
X144046686Y-65589364D01*
X143820002Y-65569532D01*
X143819998Y-65569532D01*
X143593313Y-65589364D01*
X143593302Y-65589366D01*
X143373511Y-65648258D01*
X143373502Y-65648261D01*
X143167267Y-65744431D01*
X143167265Y-65744432D01*
X142980858Y-65874954D01*
X142819954Y-66035858D01*
X142689432Y-66222265D01*
X142689431Y-66222267D01*
X142593261Y-66428502D01*
X142593258Y-66428511D01*
X142534366Y-66648302D01*
X142534364Y-66648313D01*
X142514532Y-66874998D01*
X142514532Y-66875001D01*
X142534364Y-67101686D01*
X142534366Y-67101697D01*
X142593258Y-67321488D01*
X142593261Y-67321497D01*
X142689431Y-67527732D01*
X142689432Y-67527734D01*
X142819954Y-67714141D01*
X142980858Y-67875045D01*
X142980861Y-67875047D01*
X143167266Y-68005568D01*
X143225275Y-68032618D01*
X143277714Y-68078791D01*
X143296866Y-68145984D01*
X143276650Y-68212865D01*
X143225275Y-68257382D01*
X143167267Y-68284431D01*
X143167265Y-68284432D01*
X142980858Y-68414954D01*
X142819954Y-68575858D01*
X142689432Y-68762265D01*
X142689431Y-68762267D01*
X142593261Y-68968502D01*
X142593258Y-68968511D01*
X142534366Y-69188302D01*
X142534364Y-69188313D01*
X142514532Y-69414998D01*
X142514532Y-69415001D01*
X142534364Y-69641686D01*
X142534366Y-69641697D01*
X142593258Y-69861488D01*
X142593261Y-69861497D01*
X142689431Y-70067732D01*
X142689432Y-70067734D01*
X142819954Y-70254141D01*
X142980858Y-70415045D01*
X142980861Y-70415047D01*
X143167266Y-70545568D01*
X143225275Y-70572618D01*
X143277714Y-70618791D01*
X143296866Y-70685984D01*
X143276650Y-70752865D01*
X143225275Y-70797382D01*
X143167267Y-70824431D01*
X143167265Y-70824432D01*
X142980858Y-70954954D01*
X142819954Y-71115858D01*
X142689432Y-71302265D01*
X142689431Y-71302267D01*
X142593261Y-71508502D01*
X142593258Y-71508511D01*
X142534366Y-71728302D01*
X142534364Y-71728313D01*
X142514532Y-71954998D01*
X142514532Y-71955001D01*
X142534364Y-72181686D01*
X142534366Y-72181697D01*
X142593258Y-72401488D01*
X142593261Y-72401497D01*
X142689431Y-72607732D01*
X142689432Y-72607734D01*
X142819954Y-72794141D01*
X142980858Y-72955045D01*
X142980861Y-72955047D01*
X143167266Y-73085568D01*
X143225275Y-73112618D01*
X143277714Y-73158791D01*
X143296866Y-73225984D01*
X143276650Y-73292865D01*
X143225275Y-73337382D01*
X143167267Y-73364431D01*
X143167265Y-73364432D01*
X142980858Y-73494954D01*
X142819954Y-73655858D01*
X142689432Y-73842265D01*
X142689431Y-73842267D01*
X142593261Y-74048502D01*
X142593258Y-74048511D01*
X142534366Y-74268302D01*
X142534364Y-74268313D01*
X142514532Y-74494998D01*
X142514532Y-74495001D01*
X142534364Y-74721686D01*
X142534366Y-74721697D01*
X142593258Y-74941488D01*
X142593261Y-74941497D01*
X142689431Y-75147732D01*
X142689432Y-75147734D01*
X142819954Y-75334141D01*
X142980858Y-75495045D01*
X142980861Y-75495047D01*
X143167266Y-75625568D01*
X143225275Y-75652618D01*
X143277714Y-75698791D01*
X143296866Y-75765984D01*
X143276650Y-75832865D01*
X143225275Y-75877382D01*
X143167267Y-75904431D01*
X143167265Y-75904432D01*
X142980858Y-76034954D01*
X142819954Y-76195858D01*
X142689432Y-76382265D01*
X142689431Y-76382267D01*
X142593261Y-76588502D01*
X142593258Y-76588511D01*
X142534366Y-76808302D01*
X142534364Y-76808313D01*
X142514532Y-77034998D01*
X142514532Y-77035001D01*
X142534364Y-77261686D01*
X142534366Y-77261697D01*
X142593258Y-77481488D01*
X142593261Y-77481497D01*
X142689431Y-77687732D01*
X142689432Y-77687734D01*
X142819954Y-77874141D01*
X142980858Y-78035045D01*
X142980861Y-78035047D01*
X143167266Y-78165568D01*
X143225275Y-78192618D01*
X143277714Y-78238791D01*
X143296866Y-78305984D01*
X143276650Y-78372865D01*
X143225275Y-78417382D01*
X143167267Y-78444431D01*
X143167265Y-78444432D01*
X142980858Y-78574954D01*
X142819954Y-78735858D01*
X142689432Y-78922265D01*
X142689431Y-78922267D01*
X142593261Y-79128502D01*
X142593258Y-79128511D01*
X142534366Y-79348302D01*
X142534364Y-79348313D01*
X142514532Y-79574998D01*
X142514532Y-79575001D01*
X142534364Y-79801686D01*
X142534366Y-79801697D01*
X142593258Y-80021488D01*
X142593261Y-80021497D01*
X142689431Y-80227732D01*
X142689432Y-80227734D01*
X142819954Y-80414141D01*
X142980858Y-80575045D01*
X142980861Y-80575047D01*
X143167266Y-80705568D01*
X143225275Y-80732618D01*
X143277714Y-80778791D01*
X143296866Y-80845984D01*
X143276650Y-80912865D01*
X143225275Y-80957382D01*
X143167267Y-80984431D01*
X143167265Y-80984432D01*
X142980858Y-81114954D01*
X142819954Y-81275858D01*
X142689432Y-81462265D01*
X142689431Y-81462267D01*
X142593261Y-81668502D01*
X142593258Y-81668511D01*
X142534366Y-81888302D01*
X142534364Y-81888313D01*
X142514532Y-82114998D01*
X142514532Y-82115001D01*
X136604986Y-82115001D01*
X136604986Y-82115000D01*
X136585165Y-81989852D01*
X136527641Y-81876955D01*
X136515686Y-81865000D01*
X137478872Y-81865000D01*
X137478872Y-81864999D01*
X137426269Y-81668682D01*
X137426265Y-81668673D01*
X137330134Y-81462517D01*
X137199657Y-81276179D01*
X137038820Y-81115342D01*
X136852482Y-80984865D01*
X136794133Y-80957657D01*
X136741694Y-80911484D01*
X136722542Y-80844291D01*
X136742758Y-80777410D01*
X136794129Y-80732895D01*
X136852734Y-80705568D01*
X137039139Y-80575047D01*
X137200047Y-80414139D01*
X137330568Y-80227734D01*
X137426739Y-80021496D01*
X137485635Y-79801692D01*
X137505468Y-79575000D01*
X137485635Y-79348308D01*
X137426739Y-79128504D01*
X137330568Y-78922266D01*
X137200047Y-78735861D01*
X137200045Y-78735858D01*
X137039141Y-78574954D01*
X136852734Y-78444432D01*
X136852728Y-78444429D01*
X136794725Y-78417382D01*
X136742285Y-78371210D01*
X136723133Y-78304017D01*
X136743348Y-78237135D01*
X136794725Y-78192618D01*
X136852734Y-78165568D01*
X137039139Y-78035047D01*
X137200047Y-77874139D01*
X137330568Y-77687734D01*
X137426739Y-77481496D01*
X137485635Y-77261692D01*
X137505468Y-77035000D01*
X137485635Y-76808308D01*
X137426739Y-76588504D01*
X137330568Y-76382266D01*
X137200047Y-76195861D01*
X137200045Y-76195858D01*
X137039141Y-76034954D01*
X136852734Y-75904432D01*
X136852728Y-75904429D01*
X136794725Y-75877382D01*
X136742285Y-75831210D01*
X136723133Y-75764017D01*
X136743348Y-75697135D01*
X136794725Y-75652618D01*
X136852734Y-75625568D01*
X137039139Y-75495047D01*
X137200047Y-75334139D01*
X137330568Y-75147734D01*
X137426739Y-74941496D01*
X137485635Y-74721692D01*
X137505468Y-74495000D01*
X137485635Y-74268308D01*
X137426739Y-74048504D01*
X137330568Y-73842266D01*
X137200047Y-73655861D01*
X137200045Y-73655858D01*
X137039141Y-73494954D01*
X136852734Y-73364432D01*
X136852728Y-73364429D01*
X136794725Y-73337382D01*
X136742285Y-73291210D01*
X136723133Y-73224017D01*
X136743348Y-73157135D01*
X136794725Y-73112618D01*
X136852734Y-73085568D01*
X137039139Y-72955047D01*
X137200047Y-72794139D01*
X137330568Y-72607734D01*
X137426739Y-72401496D01*
X137485635Y-72181692D01*
X137505468Y-71955000D01*
X137485635Y-71728308D01*
X137426739Y-71508504D01*
X137330568Y-71302266D01*
X137200047Y-71115861D01*
X137200045Y-71115858D01*
X137039141Y-70954954D01*
X136852734Y-70824432D01*
X136852728Y-70824429D01*
X136794725Y-70797382D01*
X136742285Y-70751210D01*
X136723133Y-70684017D01*
X136743348Y-70617135D01*
X136794725Y-70572618D01*
X136852734Y-70545568D01*
X137039139Y-70415047D01*
X137200047Y-70254139D01*
X137330568Y-70067734D01*
X137426739Y-69861496D01*
X137485635Y-69641692D01*
X137505468Y-69415000D01*
X137504140Y-69399826D01*
X137485635Y-69188313D01*
X137485635Y-69188308D01*
X137426739Y-68968504D01*
X137330568Y-68762266D01*
X137200047Y-68575861D01*
X137200045Y-68575858D01*
X137039143Y-68414956D01*
X137014536Y-68397726D01*
X136970912Y-68343149D01*
X136963719Y-68273650D01*
X136995241Y-68211296D01*
X137055471Y-68175882D01*
X137072404Y-68172861D01*
X137107483Y-68169091D01*
X137242331Y-68118796D01*
X137357546Y-68032546D01*
X137443796Y-67917331D01*
X137494091Y-67782483D01*
X137500500Y-67722873D01*
X137500499Y-66027128D01*
X137494091Y-65967517D01*
X137459567Y-65874954D01*
X137443797Y-65832671D01*
X137443793Y-65832664D01*
X137357547Y-65717455D01*
X137357544Y-65717452D01*
X137242335Y-65631206D01*
X137242328Y-65631202D01*
X137107482Y-65580908D01*
X137107483Y-65580908D01*
X137047883Y-65574501D01*
X137047881Y-65574500D01*
X137047873Y-65574500D01*
X137047864Y-65574500D01*
X135352129Y-65574500D01*
X135352123Y-65574501D01*
X135292516Y-65580908D01*
X135157671Y-65631202D01*
X135157664Y-65631206D01*
X135042455Y-65717452D01*
X135042452Y-65717455D01*
X134956206Y-65832664D01*
X134956202Y-65832671D01*
X134905908Y-65967517D01*
X134899501Y-66027116D01*
X134899501Y-66027123D01*
X134899500Y-66027135D01*
X134899500Y-67722870D01*
X134899501Y-67722876D01*
X134905908Y-67782483D01*
X134956202Y-67917328D01*
X134956206Y-67917335D01*
X135042452Y-68032544D01*
X135042455Y-68032547D01*
X135157664Y-68118793D01*
X135157671Y-68118797D01*
X135202618Y-68135561D01*
X135292517Y-68169091D01*
X135327596Y-68172862D01*
X135392144Y-68199599D01*
X135431993Y-68256991D01*
X135434488Y-68326816D01*
X135398836Y-68386905D01*
X135385464Y-68397725D01*
X135360858Y-68414954D01*
X135199954Y-68575858D01*
X135069432Y-68762265D01*
X135069431Y-68762267D01*
X134973261Y-68968502D01*
X134973258Y-68968511D01*
X134914366Y-69188302D01*
X134914364Y-69188313D01*
X134894532Y-69414998D01*
X134894532Y-69415001D01*
X134914364Y-69641686D01*
X134914366Y-69641697D01*
X134973258Y-69861488D01*
X134973261Y-69861497D01*
X135069431Y-70067732D01*
X135069432Y-70067734D01*
X135199954Y-70254141D01*
X135360858Y-70415045D01*
X135360861Y-70415047D01*
X135547266Y-70545568D01*
X135605275Y-70572618D01*
X135657714Y-70618791D01*
X135676866Y-70685984D01*
X135656650Y-70752865D01*
X135605275Y-70797382D01*
X135547267Y-70824431D01*
X135547265Y-70824432D01*
X135360858Y-70954954D01*
X135199954Y-71115858D01*
X135069432Y-71302265D01*
X135069431Y-71302267D01*
X134973261Y-71508502D01*
X134973258Y-71508511D01*
X134914366Y-71728302D01*
X134914364Y-71728313D01*
X134894532Y-71954998D01*
X134894532Y-71955001D01*
X134914364Y-72181686D01*
X134914366Y-72181697D01*
X134973258Y-72401488D01*
X134973261Y-72401497D01*
X135069431Y-72607732D01*
X135069432Y-72607734D01*
X135199954Y-72794141D01*
X135360858Y-72955045D01*
X135360861Y-72955047D01*
X135547266Y-73085568D01*
X135605275Y-73112618D01*
X135657714Y-73158791D01*
X135676866Y-73225984D01*
X135656650Y-73292865D01*
X135605275Y-73337382D01*
X135547267Y-73364431D01*
X135547265Y-73364432D01*
X135360858Y-73494954D01*
X135199954Y-73655858D01*
X135069432Y-73842265D01*
X135069431Y-73842267D01*
X134973261Y-74048502D01*
X134973258Y-74048511D01*
X134914366Y-74268302D01*
X134914364Y-74268313D01*
X134894532Y-74494998D01*
X134894532Y-74495001D01*
X134914364Y-74721686D01*
X134914366Y-74721697D01*
X134973258Y-74941488D01*
X134973261Y-74941497D01*
X135069431Y-75147732D01*
X135069432Y-75147734D01*
X135199954Y-75334141D01*
X135360858Y-75495045D01*
X135360861Y-75495047D01*
X135547266Y-75625568D01*
X135605275Y-75652618D01*
X135657714Y-75698791D01*
X135676866Y-75765984D01*
X135656650Y-75832865D01*
X135605275Y-75877382D01*
X135547267Y-75904431D01*
X135547265Y-75904432D01*
X135360858Y-76034954D01*
X135199954Y-76195858D01*
X135069432Y-76382265D01*
X135069431Y-76382267D01*
X134973261Y-76588502D01*
X134973258Y-76588511D01*
X134914366Y-76808302D01*
X134914364Y-76808313D01*
X134894532Y-77034998D01*
X134894532Y-77035001D01*
X134914364Y-77261686D01*
X134914366Y-77261697D01*
X134973258Y-77481488D01*
X134973261Y-77481497D01*
X135069431Y-77687732D01*
X135069432Y-77687734D01*
X135199954Y-77874141D01*
X135360858Y-78035045D01*
X135360861Y-78035047D01*
X135547266Y-78165568D01*
X135605275Y-78192618D01*
X135657714Y-78238791D01*
X135676866Y-78305984D01*
X135656650Y-78372865D01*
X135605275Y-78417382D01*
X135547267Y-78444431D01*
X135547265Y-78444432D01*
X135360858Y-78574954D01*
X135199954Y-78735858D01*
X135069432Y-78922265D01*
X135069431Y-78922267D01*
X134973261Y-79128502D01*
X134973258Y-79128511D01*
X134914366Y-79348302D01*
X134914364Y-79348313D01*
X134894532Y-79574998D01*
X134894532Y-79575001D01*
X114671011Y-79575001D01*
X114684643Y-74790000D01*
X119340554Y-74790000D01*
X119360295Y-75003047D01*
X119360296Y-75003050D01*
X119418846Y-75208835D01*
X119418849Y-75208840D01*
X119514219Y-75400370D01*
X119643159Y-75571114D01*
X119801278Y-75715258D01*
X119801283Y-75715261D01*
X119801286Y-75715263D01*
X119983186Y-75827891D01*
X119983187Y-75827891D01*
X119983190Y-75827893D01*
X120182703Y-75905185D01*
X120393020Y-75944500D01*
X120393022Y-75944500D01*
X120606978Y-75944500D01*
X120606980Y-75944500D01*
X120817297Y-75905185D01*
X121016810Y-75827893D01*
X121198722Y-75715258D01*
X121356841Y-75571114D01*
X121485781Y-75400370D01*
X121581151Y-75208840D01*
X121581151Y-75208837D01*
X121581153Y-75208835D01*
X121639703Y-75003050D01*
X121639704Y-75003047D01*
X121659446Y-74790000D01*
X126940554Y-74790000D01*
X126960295Y-75003047D01*
X126960296Y-75003050D01*
X127018846Y-75208835D01*
X127018849Y-75208840D01*
X127114219Y-75400370D01*
X127243159Y-75571114D01*
X127401278Y-75715258D01*
X127401283Y-75715261D01*
X127401286Y-75715263D01*
X127583186Y-75827891D01*
X127583187Y-75827891D01*
X127583190Y-75827893D01*
X127782703Y-75905185D01*
X127993020Y-75944500D01*
X127993022Y-75944500D01*
X128206978Y-75944500D01*
X128206980Y-75944500D01*
X128417297Y-75905185D01*
X128616810Y-75827893D01*
X128798722Y-75715258D01*
X128956841Y-75571114D01*
X129085781Y-75400370D01*
X129181151Y-75208840D01*
X129181151Y-75208837D01*
X129181153Y-75208835D01*
X129239703Y-75003050D01*
X129239704Y-75003047D01*
X129259446Y-74790000D01*
X129259446Y-74789999D01*
X129239704Y-74576952D01*
X129239703Y-74576949D01*
X129181153Y-74371164D01*
X129181150Y-74371158D01*
X129085781Y-74179630D01*
X128956841Y-74008886D01*
X128798722Y-73864742D01*
X128798716Y-73864738D01*
X128798713Y-73864736D01*
X128616813Y-73752108D01*
X128616807Y-73752106D01*
X128417297Y-73674815D01*
X128206980Y-73635500D01*
X127993020Y-73635500D01*
X127782703Y-73674815D01*
X127656533Y-73723693D01*
X127583192Y-73752106D01*
X127583186Y-73752108D01*
X127401286Y-73864736D01*
X127401283Y-73864738D01*
X127401279Y-73864740D01*
X127401278Y-73864742D01*
X127243159Y-74008886D01*
X127243158Y-74008887D01*
X127114219Y-74179629D01*
X127018849Y-74371158D01*
X127018846Y-74371164D01*
X126960296Y-74576949D01*
X126960295Y-74576952D01*
X126940554Y-74789999D01*
X126940554Y-74790000D01*
X121659446Y-74790000D01*
X121659446Y-74789999D01*
X121639704Y-74576952D01*
X121639703Y-74576949D01*
X121581153Y-74371164D01*
X121581150Y-74371158D01*
X121485781Y-74179630D01*
X121356841Y-74008886D01*
X121198722Y-73864742D01*
X121198716Y-73864738D01*
X121198713Y-73864736D01*
X121016813Y-73752108D01*
X121016807Y-73752106D01*
X120817297Y-73674815D01*
X120606980Y-73635500D01*
X120393020Y-73635500D01*
X120182703Y-73674815D01*
X120056533Y-73723693D01*
X119983192Y-73752106D01*
X119983186Y-73752108D01*
X119801286Y-73864736D01*
X119801283Y-73864738D01*
X119801279Y-73864740D01*
X119801278Y-73864742D01*
X119643159Y-74008886D01*
X119643158Y-74008887D01*
X119514219Y-74179629D01*
X119418849Y-74371158D01*
X119418846Y-74371164D01*
X119360296Y-74576949D01*
X119360295Y-74576952D01*
X119340554Y-74789999D01*
X119340554Y-74790000D01*
X114684643Y-74790000D01*
X114699854Y-69451154D01*
X114719729Y-69384172D01*
X114736167Y-69363832D01*
X119964781Y-64135218D01*
X120026102Y-64101735D01*
X120049793Y-64098930D01*
X161774065Y-63202705D01*
X161841512Y-63220945D01*
G37*
%TD.AperFunction*%
%TD*%
M02*
