M48
; DRILL file {KiCad 7.0.10} date Tue Jan 30 14:46:11 2024
; FORMAT={-:-/ absolute / inch / decimal}
; #@! TF.CreationDate,2024-01-30T14:46:11-06:00
; #@! TF.GenerationSoftware,Kicad,Pcbnew,7.0.10
; #@! TF.FileFunction,Plated,1,2,PTH
FMAT,2
INCH
; #@! TA.AperFunction,Plated,PTH,ViaDrill
T1C0.0157
; #@! TA.AperFunction,Plated,PTH,ComponentDrill
T2C0.0315
; #@! TA.AperFunction,Plated,PTH,ComponentDrill
T3C0.0354
%
G90
G05
T1
X5.2362Y-2.748
T2
X4.7303Y-3.4626
X4.7303Y-3.6004
X4.7441Y-2.9445
X4.7441Y-3.2445
X5.0413Y-3.4469
X5.0413Y-3.5846
X5.0433Y-2.9445
X5.0433Y-3.2445
X5.3622Y-2.6329
X5.3622Y-2.7329
X5.3622Y-2.8329
X5.3622Y-2.9329
X5.3622Y-3.0329
X5.3622Y-3.1329
X5.3622Y-3.2329
X5.374Y-3.4203
X5.374Y-3.5203
X5.374Y-3.6203
X5.374Y-3.7203
X5.374Y-3.8203
X5.374Y-3.9203
X5.374Y-4.0203
X5.374Y-4.2274
X5.374Y-4.3274
X5.374Y-4.4274
X5.374Y-4.5274
X5.374Y-4.6274
X5.374Y-4.7274
X5.374Y-4.8274
X5.6622Y-2.6329
X5.6622Y-2.7329
X5.6622Y-2.8329
X5.6622Y-2.9329
X5.6622Y-3.0329
X5.6622Y-3.1329
X5.6622Y-3.2329
X5.674Y-3.4203
X5.674Y-3.5203
X5.674Y-3.6203
X5.674Y-3.7203
X5.674Y-3.8203
X5.674Y-3.9203
X5.674Y-4.0203
X5.674Y-4.2274
X5.674Y-4.3274
X5.674Y-4.4274
X5.674Y-4.5274
X5.674Y-4.6274
X5.674Y-4.7274
X5.674Y-4.8274
X5.8445Y-3.2618
X5.8524Y-3.6791
X5.8602Y-2.8209
X5.9823Y-3.2618
X5.9902Y-3.6791
X5.998Y-2.8209
T3
X4.7327Y-4.0049
X4.8327Y-4.0049
X4.961Y-4.0049
X5.061Y-4.0049
X6.1854Y-2.8356
X6.1854Y-3.6742
X6.1894Y-3.2687
X6.2854Y-2.8356
X6.2854Y-3.6742
X6.2894Y-3.2687
M30
