M48
INCH,TZ
T1C0.0157
T2C0.0291
T3C0.0303
T4C0.0307
T5C0.0315
T6C0.0354
T7C0.0394
T8C0.0472
%
G90
G05
T1
X48465Y-27323
X71811Y-44685
T2
X45894Y-32728
X45894Y-33728
X45894Y-34728
X45894Y-35728
X45894Y-36728
X45894Y-37728
X45894Y-38728
X49020Y-32728
X49020Y-33728
X49020Y-34728
X49020Y-35728
X49020Y-36728
X49020Y-37728
X49020Y-38728
T3
X55996Y-32909
X55996Y-33909
X55996Y-34909
X55996Y-35909
X55996Y-36909
X55996Y-37909
X55996Y-38909
X59122Y-32909
X59122Y-33909
X59122Y-34909
X59122Y-35909
X59122Y-36909
X59122Y-37909
X59122Y-38909
T4
X67295Y-32327
X67295Y-33327
X67295Y-34327
X67295Y-35327
X67295Y-36327
X67295Y-37327
X67295Y-38327
X67295Y-39327
X70421Y-32327
X70421Y-33327
X70421Y-34327
X70421Y-35327
X70421Y-36327
X70421Y-37327
X70421Y-38327
X70421Y-39327
T5
X40224Y-38573
X40224Y-39557
X40264Y-45909
X40264Y-46894
X40480Y-31087
X40480Y-32071
X40717Y-54578
X40717Y-55562
X67309Y-27547
X68293Y-27547
T6
X86695Y-41327
X86813Y-30146
X86813Y-37587
X86852Y-33571
X87695Y-41327
X87813Y-30146
X87813Y-37587
X87852Y-33571
T7
X30835Y-48488
X30835Y-50260
X30874Y-34481
X30874Y-36253
X30874Y-41450
X30874Y-43221
X30894Y-56013
X30894Y-57784
X33394Y-48488
X33394Y-50260
X33433Y-34481
X33433Y-36253
X33433Y-41450
X33433Y-43221
X33453Y-56013
X33453Y-57784
X52185Y-52429
X53185Y-52429
X54185Y-52429
X55185Y-52429
X56185Y-52429
X63311Y-52311
X64311Y-52311
X65311Y-52311
X66311Y-52311
X67311Y-52311
X68311Y-52311
X69311Y-52311
X70311Y-52311
X71311Y-52311
X72311Y-52311
X73311Y-52311
X74311Y-52311
X75311Y-52311
X76311Y-52311
T8
X36189Y-52505
X36189Y-55505
X36228Y-39252
X36228Y-42252
X36327Y-45870
X36327Y-48870
X36406Y-31657
X36406Y-34657
X48728Y-41815
X48728Y-44815
X51028Y-27744
X52390Y-41996
X54028Y-27744
X55390Y-41996
X58587Y-46287
X59059Y-42075
X60120Y-27547
X61587Y-46287
X62059Y-42075
X63120Y-27547
X78035Y-33571
X78035Y-41248
X78390Y-30146
X78547Y-37587
X81035Y-33571
X81035Y-41248
X81390Y-30146
X81547Y-37587
M30
